<?xml version="1.0" encoding="UTF-8" standalone="no"?>
<!-- Created with Inkscape (http://www.inkscape.org/) -->

<svg
   xmlns:dc="http://purl.org/dc/elements/1.1/"
   xmlns:cc="http://creativecommons.org/ns#"
   xmlns:rdf="http://www.w3.org/1999/02/22-rdf-syntax-ns#"
   xmlns:svg="http://www.w3.org/2000/svg"
   xmlns="http://www.w3.org/2000/svg"
   xmlns:sodipodi="http://sodipodi.sourceforge.net/DTD/sodipodi-0.dtd"
   xmlns:inkscape="http://www.inkscape.org/namespaces/inkscape"
   version="1.1"
   id="svg6980"
   xml:space="preserve"
   width="495.19937"
   height="567.10468"
   viewBox="0 0 495.19937 567.10468"
   sodipodi:docname="gen_bounce.svg"
   inkscape:version="0.92.1 r"><sodipodi:namedview
     pagecolor="#ffffff"
     bordercolor="#666666"
     borderopacity="1"
     objecttolerance="10"
     gridtolerance="10"
     guidetolerance="10"
     inkscape:pageopacity="0"
     inkscape:pageshadow="2"
     inkscape:window-width="1916"
     inkscape:window-height="1041"
     id="namedview6982"
     showgrid="false"
     inkscape:zoom="0.89393939"
     inkscape:cx="279.09575"
     inkscape:cy="206.93136"
     inkscape:window-x="0"
     inkscape:window-y="18"
     inkscape:window-maximized="0"
     inkscape:current-layer="g6988" /><metadata
     id="metadata6986"><rdf:RDF><cc:Work
         rdf:about=""><dc:format>image/svg+xml</dc:format><dc:type
           rdf:resource="http://purl.org/dc/dcmitype/StillImage" /><dc:title></dc:title></cc:Work></rdf:RDF></metadata><defs
     id="defs6984" /><g
     transform="matrix(1.3333333,0,0,-1.3333333,10.504549,567.50064)"
     inkscape:label="gen_bounce"
     inkscape:groupmode="layer"
     id="g6988"><path
       d="m 33.516,61.57 c 0,3.543 -2.871,6.414 -6.414,6.414 -3.543,0 -6.414,-2.871 -6.414,-6.414 0,-3.543 2.871,-6.414 6.414,-6.414 3.543,0 6.414,2.871 6.414,6.414 z"
       style="fill:#000000;fill-opacity:1;fill-rule:nonzero;stroke:none"
       id="path6992"
       inkscape:connector-curvature="0" /><path
       d="m 129.711,261.512 c 0,3.539 -2.871,6.41 -6.414,6.41 -3.543,0 -6.414,-2.871 -6.414,-6.41 0,-3.543 2.871,-6.414 6.414,-6.414 3.543,0 6.414,2.871 6.414,6.414 z"
       style="fill:#000000;fill-opacity:1;fill-rule:nonzero;stroke:none"
       id="path6994"
       inkscape:connector-curvature="0" /><g
       id="g6996"
       transform="matrix(1,0,0,-1,0,396)"><path
         d="M 123.297,134.488 27.102,334.43"
         style="fill:none;stroke:#000000;stroke-width:4.03666019;stroke-linecap:butt;stroke-linejoin:miter;stroke-miterlimit:10;stroke-dasharray:none;stroke-opacity:1"
         id="path6998"
         inkscape:connector-curvature="0" /></g><path
       d="m 257.652,260.844 c 0,3.543 -2.871,6.414 -6.414,6.414 -3.543,0 -6.414,-2.871 -6.414,-6.414 0,-3.543 2.871,-6.414 6.414,-6.414 3.543,0 6.414,2.871 6.414,6.414 z"
       style="fill:#000000;fill-opacity:1;fill-rule:nonzero;stroke:none"
       id="path7000"
       inkscape:connector-curvature="0" /><path
       d="m 353.848,60.902 c 0,3.543 -2.871,6.414 -6.414,6.414 -3.539,0 -6.411,-2.871 -6.411,-6.414 0,-3.539 2.872,-6.41 6.411,-6.41 3.543,0 6.414,2.871 6.414,6.41 z"
       style="fill:#000000;fill-opacity:1;fill-rule:nonzero;stroke:none"
       id="path7002"
       inkscape:connector-curvature="0" /><g
       id="g7004"
       transform="matrix(1,0,0,-1,0,396)"><path
         d="M 347.434,335.098 251.238,135.156"
         style="fill:none;stroke:#000000;stroke-width:4.03666019;stroke-linecap:butt;stroke-linejoin:miter;stroke-miterlimit:10;stroke-dasharray:none;stroke-opacity:1"
         id="path7006"
         inkscape:connector-curvature="0" /></g><path
       d="m 113.355,227.52 c 0,3.542 -2.871,6.414 -6.41,6.414 -3.543,0 -6.414,-2.872 -6.414,-6.414 0,-3.54 2.871,-6.411 6.414,-6.411 3.539,0 6.41,2.871 6.41,6.411 z"
       style="fill:#000000;fill-opacity:1;fill-rule:nonzero;stroke:none"
       id="path7008"
       inkscape:connector-curvature="0" /><path
       d="m 320.18,130.883 c 0,3.543 -2.871,6.414 -6.414,6.414 -3.539,0 -6.414,-2.871 -6.414,-6.414 0,-3.543 2.875,-6.414 6.414,-6.414 3.543,0 6.414,2.871 6.414,6.414 z"
       style="fill:#000000;fill-opacity:1;fill-rule:nonzero;stroke:none"
       id="path7010"
       inkscape:connector-curvature="0" /><g
       id="g7012"
       transform="matrix(1,0,0,-1,0,396)"><path
         d="M 313.766,265.117 119.742,174.461"
         style="fill:none;stroke:#000000;stroke-width:1.61466396;stroke-linecap:butt;stroke-linejoin:miter;stroke-miterlimit:10;stroke-dasharray:none;stroke-opacity:1"
         id="path7014"
         inkscape:connector-curvature="0" /></g><path
       d="m 106.945,227.52 12.7,-11.86 -0.286,6.059 4.832,3.672 z"
       style="fill:#000000;fill-opacity:1;fill-rule:nonzero;stroke:none"
       id="path7016"
       inkscape:connector-curvature="0" /><path
       d="m 119.359,221.719 0.383,-0.18 -0.34,-0.73 -0.043,0.91 0.383,-0.18 0.344,0.731 z"
       style="fill:#000000;fill-opacity:1;fill-rule:nonzero;stroke:none"
       id="path7018"
       inkscape:connector-curvature="0" /><g
       id="g7020"
       transform="matrix(1,0,0,-1,0,396)"><path
         d="M 347.434,335.098 187.109,1.863 26.781,335.098 Z"
         style="fill:none;stroke:#000000;stroke-width:1.61466396;stroke-linecap:butt;stroke-linejoin:miter;stroke-miterlimit:10;stroke-dasharray:8.07332, 8.07332;stroke-dashoffset:0;stroke-opacity:1"
         id="path7022"
         inkscape:connector-curvature="0" /></g><g
       id="g7024"
       transform="matrix(1,-0.790513,-0.790513,-1,0,396)"><path
         d="m 145.893,-75.467 c 0.002,5.112 -2.37,10.002 -6.559,13.529 -4.189,3.526 -9.831,5.377 -15.61,5.129"
         style="fill:none;stroke:#000000;stroke-width:0.57105798;stroke-linecap:butt;stroke-linejoin:miter;stroke-miterlimit:4;stroke-dasharray:none;stroke-opacity:1"
         id="path7026"
         inkscape:connector-curvature="0" /></g><g
       id="g7028"
       transform="matrix(0.0719038,1,1,-0.0719038,0,396)"><path
         d="m -301.009,62.839 c -10e-4,6.504 -3.015,12.721 -8.341,17.201 -5.327,4.481 -12.501,6.841 -19.848,6.521"
         style="fill:none;stroke:#000000;stroke-width:0.72606498;stroke-linecap:butt;stroke-linejoin:miter;stroke-miterlimit:4;stroke-dasharray:none;stroke-opacity:1"
         id="path7030"
         inkscape:connector-curvature="0" /></g><g
       id="g7032"
       transform="matrix(-1,-0.319691,-0.319691,1,0,396)"><path
         d="m -185.822,-394.515 c 0,6.207 -2.879,12.146 -7.966,16.426 -5.087,4.28 -11.936,6.532 -18.952,6.226"
         style="fill:none;stroke:#000000;stroke-width:0.69336897;stroke-linecap:butt;stroke-linejoin:miter;stroke-miterlimit:4;stroke-dasharray:none;stroke-opacity:1"
         id="path7034"
         inkscape:connector-curvature="0" /></g><path
       d="M 183.094,3.566 183.051,3.414 183.02,3.273 182.977,3.137 182.941,3.012 182.91,2.887 182.824,2.668 182.781,2.566 182.742,2.473 182.691,2.383 182.633,2.297 182.574,2.223 182.516,2.145 182.438,2.086 182.363,2.02 182.27,1.969 182.176,1.91 181.957,1.824 181.832,1.785 181.699,1.75 l -0.078,-0.016 -0.074,-0.007 -0.074,-0.02 -0.086,-0.016 -0.082,-0.007 -0.086,-0.008 -0.094,-0.008 -0.098,-0.02 -0.093,-0.007 -0.11,-0.008 h -0.101 l -0.11,-0.008 -0.117,-0.008 h -0.117 l -0.117,-0.008 h -0.129 L 180,1.598 h -0.715 c -0.715,0 -1.137,0 -1.137,-0.84 0,-0.461 0.387,-0.461 1.137,-0.461 h 14.949 c 6.618,0 11.563,4.933 11.563,9.047 0,3.008 -2.43,5.441 -6.492,5.902 4.363,0.797 8.761,3.902 8.761,7.887 0,3.094 -2.773,5.777 -7.8,5.777 l -0.582,-1.305 c 3.683,0 4.558,-2.464 4.558,-4.304 0,-3.692 -3.601,-7.676 -8.703,-7.676 h -6.113 l -0.254,-0.918 h 7.914 c 4.019,0 4.816,-3.102 4.816,-4.902 0,-4.153 -3.722,-8.207 -8.668,-8.207 h -5.699 c -0.582,0 -0.676,0 -0.918,0.035 -0.422,0.043 -0.539,0.082 -0.539,0.422 0,0.117 0,0.207 0.211,0.957 l 2.883,11.695 0.254,0.918 2.59,10.391 c 0.379,1.464 0.453,1.589 2.269,1.589 h 5.399 l 0.582,1.305 h -14.071 c -0.789,0 -1.211,0 -1.211,-0.84 0,-0.465 0.371,-0.465 1.172,-0.465 0.074,0 0.883,0 1.586,-0.074 0.75,-0.093 1.129,-0.136 1.129,-0.672 0,-0.171 -0.035,-0.304 -0.168,-0.8 z"
       style="fill:#000000;fill-opacity:1;fill-rule:evenodd;stroke:none"
       id="path7036"
       inkscape:connector-curvature="0" /><path
       d="m 35.543,199.16 -0.172,-0.269 -0.16,-0.262 -0.172,-0.254 -0.172,-0.234 -0.164,-0.227 -0.168,-0.207 -0.172,-0.195 -0.164,-0.192 -0.172,-0.179 -0.168,-0.161 -0.164,-0.156 -0.172,-0.144 -0.171,-0.133 -0.161,-0.125 -0.171,-0.117 -0.172,-0.11 -0.172,-0.097 -0.168,-0.094 -0.172,-0.078 -0.172,-0.082 -0.172,-0.063 -0.18,-0.062 -0.171,-0.063 -0.18,-0.047 -0.172,-0.047 -0.359,-0.07 -0.172,-0.027 -0.367,-0.043 -0.364,-0.027 c -0.547,-0.047 -0.945,-0.047 -0.945,-0.903 0,-0.269 0.227,-0.496 0.578,-0.496 1.207,0 2.602,0.145 3.856,0.145 1.476,0 3.054,-0.145 4.496,-0.145 0.261,0 0.855,0 0.855,0.856 0,0.496 -0.406,0.543 -0.719,0.543 -1.039,0.078 -2.109,0.449 -2.109,1.558 0,0.547 0.27,1.043 0.621,1.656 l 3.414,5.758 h 11.262 l -0.125,1.387 H 40.922 l 8.855,14.82 1.434,-14.82 0.125,-1.387 c 0.102,-0.937 0.723,-7.047 0.723,-7.496 0,-1.351 -2.336,-1.476 -3.227,-1.476 -0.629,0 -1.082,0 -1.082,-0.903 0,-0.496 0.531,-0.496 0.633,-0.496 1.828,0 3.773,0.145 5.601,0.145 1.129,0 3.957,-0.145 5.082,-0.145 0.27,0 0.805,0 0.805,0.902 0,0.497 -0.453,0.497 -1.027,0.497 -2.785,0 -2.785,0.304 -2.93,1.609 l -2.73,28.051 c -0.098,0.898 -0.098,1.078 -0.856,1.078 -0.723,0 -0.89,-0.305 -1.172,-0.754 z"
       style="fill:#000000;fill-opacity:1;fill-rule:evenodd;stroke:none"
       id="path7038"
       inkscape:connector-curvature="0" /><path
       d="m 323.355,200.016 -0.171,-0.27 -0.161,-0.262 -0.171,-0.25 -0.172,-0.234 -0.16,-0.227 -0.172,-0.207 -0.172,-0.199 -0.164,-0.187 -0.168,-0.18 -0.172,-0.164 -0.164,-0.152 -0.172,-0.145 -0.168,-0.133 -0.164,-0.129 -0.172,-0.117 -0.172,-0.105 -0.168,-0.102 -0.172,-0.09 -0.172,-0.082 -0.171,-0.078 -0.172,-0.062 -0.18,-0.067 -0.172,-0.062 -0.18,-0.043 -0.171,-0.047 -0.36,-0.07 -0.172,-0.028 -0.367,-0.047 -0.363,-0.027 c -0.547,-0.043 -0.945,-0.043 -0.945,-0.898 0,-0.274 0.226,-0.497 0.578,-0.497 1.207,0 2.601,0.145 3.855,0.145 1.477,0 3.055,-0.145 4.496,-0.145 0.262,0 0.856,0 0.856,0.856 0,0.496 -0.407,0.539 -0.719,0.539 -1.039,0.082 -2.109,0.453 -2.109,1.559 0,0.55 0.269,1.046 0.621,1.66 l 3.414,5.758 h 11.261 l -0.125,1.386 h -10.289 l 8.856,14.821 1.433,-14.821 0.125,-1.386 c 0.102,-0.938 0.723,-7.047 0.723,-7.497 0,-1.351 -2.332,-1.48 -3.226,-1.48 -0.629,0 -1.083,0 -1.083,-0.898 0,-0.497 0.532,-0.497 0.633,-0.497 1.828,0 3.774,0.145 5.606,0.145 1.125,0 3.953,-0.145 5.078,-0.145 0.273,0 0.805,0 0.805,0.899 0,0.496 -0.454,0.496 -1.028,0.496 -2.785,0 -2.785,0.309 -2.929,1.613 l -2.731,28.047 c -0.098,0.902 -0.098,1.082 -0.855,1.082 -0.719,0 -0.891,-0.304 -1.172,-0.758 z"
       style="fill:#000000;fill-opacity:1;fill-rule:evenodd;stroke:none"
       id="path7040"
       inkscape:connector-curvature="0" /><path
       d="m 303.441,89.254 -0.05,0.098 -0.055,0.093 -0.051,0.094 -0.051,0.09 -0.054,0.094 -0.059,0.089 -0.062,0.086 -0.063,0.079 -0.062,0.085 -0.071,0.075 -0.066,0.082 -0.07,0.074 -0.075,0.066 -0.074,0.071 -0.078,0.062 -0.082,0.063 -0.078,0.062 -0.086,0.051 -0.086,0.059 -0.086,0.046 -0.094,0.043 -0.093,0.047 -0.098,0.035 -0.098,0.04 -0.097,0.027 -0.102,0.031 -0.109,0.024 -0.219,0.031 -0.113,0.011 -0.114,0.008 h -0.121 l 0.028,-0.625 c 1.847,0 2.246,-2.328 2.246,-2.496 0,-0.179 -0.051,-0.347 -0.078,-0.488 l -1.43,-5.582 c -0.141,-0.508 -0.141,-0.559 -0.57,-1.051 -1.247,-1.562 -2.418,-2.016 -3.211,-2.016 -1.422,0 -1.821,1.559 -1.821,2.672 0,1.422 0.907,4.918 1.563,6.231 0.883,1.68 2.168,2.73 3.301,2.73 l -0.028,0.625 c -3.328,0 -6.851,-4.175 -6.851,-8.336 0,-2.675 1.558,-4.55 3.781,-4.55 0.562,0 1.992,0.121 3.695,2.136 0.231,-1.199 1.219,-2.136 2.586,-2.136 1,0 1.656,0.652 2.106,1.566 0.488,1.023 0.859,2.762 0.859,2.816 0,0.286 -0.258,0.286 -0.34,0.286 -0.285,0 -0.312,-0.118 -0.398,-0.516 -0.485,-1.852 -1,-3.524 -2.164,-3.524 -0.766,0 -0.856,0.739 -0.856,1.309 0,0.629 0.055,0.852 0.363,2.106 0.329,1.195 0.379,1.48 0.633,2.558 l 1.024,3.981 c 0.199,0.796 0.199,0.859 0.199,0.968 0,0.489 -0.34,0.774 -0.828,0.774 -0.68,0 -1.106,-0.633 -1.192,-1.254 z"
       style="fill:#000000;fill-opacity:1;fill-rule:evenodd;stroke:none"
       id="path7042"
       inkscape:connector-curvature="0" /><path
       d="m 75.449,89.531 -0.101,0.196 -0.051,0.089 -0.055,0.094 -0.054,0.09 -0.059,0.094 -0.063,0.086 -0.062,0.078 -0.063,0.086 -0.07,0.074 -0.066,0.078 -0.071,0.074 -0.148,0.141 -0.078,0.062 -0.082,0.063 -0.078,0.062 -0.086,0.051 -0.086,0.059 -0.086,0.043 -0.09,0.047 -0.098,0.047 -0.097,0.031 -0.098,0.043 -0.098,0.027 -0.101,0.027 -0.11,0.024 -0.109,0.019 -0.105,0.016 -0.118,0.012 -0.113,0.004 h -0.121 l 0.031,-0.621 c 1.844,0 2.242,-2.332 2.242,-2.497 0,-0.183 -0.05,-0.347 -0.078,-0.492 L 73.598,82.16 c -0.141,-0.508 -0.141,-0.562 -0.571,-1.051 -1.246,-1.566 -2.414,-2.015 -3.211,-2.015 -1.421,0 -1.82,1.558 -1.82,2.672 0,1.422 0.906,4.918 1.566,6.23 0.879,1.68 2.165,2.731 3.301,2.731 l -0.031,0.621 c -3.328,0 -6.852,-4.176 -6.852,-8.332 0,-2.68 1.559,-4.551 3.782,-4.551 0.566,0 1.992,0.117 3.695,2.137 0.234,-1.2 1.223,-2.137 2.586,-2.137 1,0 1.656,0.648 2.109,1.562 0.485,1.024 0.856,2.766 0.856,2.817 0,0.285 -0.258,0.285 -0.336,0.285 -0.285,0 -0.317,-0.113 -0.402,-0.512 -0.485,-1.851 -1,-3.523 -2.165,-3.523 -0.765,0 -0.855,0.734 -0.855,1.304 0,0.629 0.059,0.852 0.363,2.11 0.328,1.195 0.379,1.48 0.637,2.558 l 1.02,3.981 c 0.203,0.793 0.203,0.855 0.203,0.965 0,0.492 -0.344,0.777 -0.828,0.777 -0.68,0 -1.11,-0.633 -1.196,-1.258 z"
       style="fill:#000000;fill-opacity:1;fill-rule:evenodd;stroke:none"
       id="path7044"
       inkscape:connector-curvature="0" /><path
       d="m 187.812,341.379 v 0.012 l -0.003,0.011 v 0.039 l -0.008,0.012 v 0.012 l -0.004,0.012 -0.008,0.011 -0.004,0.016 -0.008,0.012 -0.004,0.019 -0.003,0.008 -0.012,0.019 -0.024,0.024 -0.011,0.016 -0.008,0.007 -0.012,0.004 -0.004,0.004 -0.004,0.008 -0.011,0.004 -0.008,0.008 -0.012,0.004 -0.004,0.007 -0.012,0.004 -0.011,0.008 h -0.012 l -0.012,0.004 -0.011,0.008 h -0.012 l -0.012,0.004 -0.012,0.008 h -0.027 l -0.016,0.004 h -0.031 l -0.015,0.003 h -0.028 c -0.664,0 -2.738,-0.23 -3.472,-0.285 -0.235,-0.027 -0.551,-0.054 -0.551,-0.57 0,-0.344 0.265,-0.344 0.691,-0.344 1.367,0 1.418,-0.191 1.418,-0.476 0,-0.207 -0.258,-1.172 -0.402,-1.766 l -2.328,-9.277 c -0.336,-1.426 -0.457,-1.883 -0.457,-2.871 0,-2.704 1.507,-4.473 3.613,-4.473 v 0.629 c -0.969,0 -1.906,0.765 -1.906,2.871 0,0.543 0,1.082 0.453,2.875 l 0.625,2.621 c 0.172,0.629 0.172,0.68 0.429,0.992 1.395,1.848 2.68,2.274 3.415,2.274 1.031,0 1.796,-0.844 1.796,-2.676 0,-1.676 -0.945,-4.942 -1.453,-6.031 -0.937,-1.903 -2.25,-2.926 -3.359,-2.926 v -0.629 c 3.359,0 6.855,4.238 6.855,8.34 0,2.586 -1.507,4.547 -3.781,4.547 -1.301,0 -2.473,-0.817 -3.328,-1.704 z"
       style="fill:#000000;fill-opacity:1;fill-rule:evenodd;stroke:none"
       id="path7046"
       inkscape:connector-curvature="0" /><g
       id="g7238"
       transform="matrix(1,0,0,-1,-116.61865,393.183)"><g
         word-spacing="normal"
         letter-spacing="normal"
         font-size-adjust="none"
         font-stretch="normal"
         font-weight="normal"
         font-variant="normal"
         font-style="normal"
         stroke-miterlimit="10.433"
         xml:space="preserve"
         transform="matrix(0.67428571,0,0,-0.67428571,-118,396)"
         id="content"
         style="font-style:normal;font-variant:normal;font-weight:normal;font-stretch:normal;letter-spacing:normal;word-spacing:normal;text-anchor:start;fill:none;fill-opacity:1;fill-rule:evenodd;stroke:#000000;stroke-linecap:butt;stroke-linejoin:miter;stroke-miterlimit:10.43299961;stroke-dasharray:none;stroke-dashoffset:0;stroke-opacity:1"><path
           id="path7233"
           d="m 478.83,424.73 v 0.12 0.13 l -0.01,0.12 v 0.11 l -0.01,0.12 -0.01,0.11 -0.01,0.11 -0.02,0.1 -0.03,0.21 -0.03,0.19 -0.05,0.18 -0.04,0.18 -0.06,0.16 -0.06,0.16 -0.06,0.15 -0.07,0.13 -0.07,0.13 -0.07,0.12 -0.08,0.12 -0.08,0.1 -0.08,0.1 -0.09,0.09 -0.08,0.08 -0.09,0.07 -0.09,0.07 -0.09,0.06 -0.1,0.05 -0.09,0.05 -0.09,0.04 -0.09,0.03 -0.09,0.03 -0.1,0.03 -0.09,0.01 -0.08,0.02 h -0.09 -0.09 c -1.25,0 -2.43,-1.29 -2.43,-2.39 0,-0.64 0.25,-0.93 0.79,-1.48 1.05,-1 1.69,-2.3 1.69,-4.09 0,-2.1 -3.03,-13.5 -8.86,-13.5 -2.54,0 -3.69,1.75 -3.69,4.32 0,2.8 1.35,6.44 2.9,10.57 0.34,0.86 0.59,1.54 0.59,2.5 0,2.23 -1.59,4.07 -4.09,4.07 -4.68,0 -6.58,-7.21 -6.58,-7.67 0,-0.5 0.5,-0.5 0.61,-0.5 0.5,0 0.54,0.11 0.79,0.91 1.44,5.03 3.58,6.17 5.03,6.17 0.4,0 1.25,0 1.25,-1.59 0,-1.25 -0.5,-2.6 -0.85,-3.49 -2.19,-5.78 -2.83,-8.08 -2.83,-10.22 0,-5.37 4.37,-6.17 6.67,-6.17 8.37,0 11.2,16.49 11.2,19.08 z"
           inkscape:connector-curvature="0"
           style="fill:#000000;stroke-width:0" /><path
           id="path7235"
           d="m 494.77,401.59 -0.02,-0.07 -0.02,-0.07 -0.02,-0.07 -0.01,-0.07 -0.02,-0.08 -0.02,-0.08 -0.04,-0.15 -0.04,-0.17 -0.04,-0.16 -0.04,-0.16 -0.02,-0.07 -0.02,-0.08 -0.02,-0.08 -0.02,-0.07 -0.01,-0.07 -0.02,-0.07 -0.02,-0.07 -0.01,-0.06 -0.01,-0.06 -0.02,-0.06 -0.01,-0.05 -0.01,-0.05 -0.01,-0.04 -0.01,-0.04 v -0.04 l -0.01,-0.03 v -0.02 -0.02 c 0,-0.77 0.63,-1.11 1.17,-1.11 0.64,0 1.19,0.45 1.36,0.76 0.19,0.32 0.46,1.43 0.64,2.16 0.17,0.66 0.55,2.27 0.77,3.14 0.2,0.77 0.4,1.53 0.59,2.33 0.38,1.5 0.38,1.56 1.08,2.65 1.11,1.71 2.86,3.69 5.56,3.69 1.96,0 2.07,-1.61 2.07,-2.44 0,-2.09 -1.5,-5.95 -2.07,-7.42 -0.37,-0.98 -0.51,-1.29 -0.51,-1.89 0,-1.84 1.53,-2.98 3.31,-2.98 3.48,0 5.02,4.79 5.02,5.33 0,0.45 -0.46,0.45 -0.57,0.45 -0.48,0 -0.51,-0.2 -0.65,-0.59 -0.8,-2.79 -2.3,-4.22 -3.69,-4.22 -0.74,0 -0.88,0.48 -0.88,1.22 0,0.79 0.18,1.25 0.8,2.82 0.42,1.08 1.84,4.77 1.84,6.72 0,0.56 0,2.03 -1.28,3.03 -0.59,0.46 -1.61,0.94 -3.25,0.94 -3.12,0 -5.04,-2.05 -6.15,-3.51 -0.28,2.96 -2.77,3.51 -4.53,3.51 -2.89,0 -4.85,-1.76 -5.89,-3.16 -0.25,2.4 -2.3,3.16 -3.74,3.16 -1.5,0 -2.3,-1.08 -2.75,-1.87 -0.76,-1.29 -1.25,-3.29 -1.25,-3.46 0,-0.45 0.49,-0.45 0.6,-0.45 0.48,0 0.51,0.11 0.76,1.05 0.52,2.06 1.19,3.76 2.55,3.76 0.9,0 1.14,-0.76 1.14,-1.7 0,-0.67 -0.31,-1.95 -0.56,-2.89 -0.24,-0.95 -0.58,-2.38 -0.77,-3.14 l -1.11,-4.47 c -0.14,-0.44 -0.34,-1.31 -0.34,-1.42 0,-0.77 0.62,-1.11 1.18,-1.11 0.63,0 1.18,0.45 1.36,0.76 0.18,0.32 0.46,1.43 0.63,2.16 0.17,0.66 0.55,2.27 0.76,3.14 0.21,0.77 0.43,1.53 0.6,2.33 0.37,1.44 0.45,1.7 1.45,3.14 0.99,1.39 2.63,3.2 5.24,3.2 2.01,0 2.04,-1.78 2.04,-2.44 0,-0.87 -0.09,-1.32 -0.59,-3.28 z"
           inkscape:connector-curvature="0"
           style="fill:#000000;stroke-width:0" /></g></g><g
       id="g7334"
       transform="matrix(1,0,0,-1,72.152547,387.91985)"><g
         id="g7332"
         transform="matrix(0.67428571,0,0,-0.67428571,-118,396)"
         xml:space="preserve"
         stroke-miterlimit="10.433"
         font-style="normal"
         font-variant="normal"
         font-weight="normal"
         font-stretch="normal"
         font-size-adjust="none"
         letter-spacing="normal"
         word-spacing="normal"
         style="font-style:normal;font-variant:normal;font-weight:normal;font-stretch:normal;letter-spacing:normal;word-spacing:normal;text-anchor:start;fill:none;fill-opacity:1;fill-rule:evenodd;stroke:#000000;stroke-linecap:butt;stroke-linejoin:miter;stroke-miterlimit:10.43299961;stroke-dasharray:none;stroke-dashoffset:0;stroke-opacity:1"><path
           d="m 478.83,424.73 v 0.12 0.13 l -0.01,0.12 v 0.11 l -0.01,0.12 -0.01,0.11 -0.01,0.11 -0.02,0.1 -0.03,0.21 -0.03,0.19 -0.05,0.18 -0.04,0.18 -0.06,0.16 -0.06,0.16 -0.06,0.15 -0.07,0.13 -0.07,0.13 -0.07,0.12 -0.08,0.12 -0.08,0.1 -0.08,0.1 -0.09,0.09 -0.08,0.08 -0.09,0.07 -0.09,0.07 -0.09,0.06 -0.1,0.05 -0.09,0.05 -0.09,0.04 -0.09,0.03 -0.09,0.03 -0.1,0.03 -0.09,0.01 -0.08,0.02 h -0.09 -0.09 c -1.25,0 -2.43,-1.29 -2.43,-2.39 0,-0.64 0.25,-0.93 0.79,-1.48 1.05,-1 1.69,-2.3 1.69,-4.09 0,-2.1 -3.03,-13.5 -8.86,-13.5 -2.54,0 -3.69,1.75 -3.69,4.32 0,2.8 1.35,6.44 2.9,10.57 0.34,0.86 0.59,1.54 0.59,2.5 0,2.23 -1.59,4.07 -4.09,4.07 -4.68,0 -6.58,-7.21 -6.58,-7.67 0,-0.5 0.5,-0.5 0.61,-0.5 0.5,0 0.54,0.11 0.79,0.91 1.44,5.03 3.58,6.17 5.03,6.17 0.4,0 1.25,0 1.25,-1.59 0,-1.25 -0.5,-2.6 -0.85,-3.49 -2.19,-5.78 -2.83,-8.08 -2.83,-10.22 0,-5.37 4.37,-6.17 6.67,-6.17 8.37,0 11.2,16.49 11.2,19.08 z"
           id="path7328"
           inkscape:connector-curvature="0"
           style="fill:#000000;stroke-width:0" /><path
           d="m 491.31,420.92 v 0.04 0.04 0.05 0.04 0.03 0.04 0.04 0.03 0.04 0.03 l -0.01,0.03 v 0.03 0.03 l -0.01,0.03 v 0.03 0.02 l -0.01,0.03 v 0.02 l -0.01,0.03 v 0.02 l -0.01,0.04 -0.02,0.04 -0.02,0.03 -0.02,0.03 -0.02,0.03 -0.02,0.03 -0.03,0.02 -0.03,0.02 -0.03,0.02 -0.04,0.01 -0.04,0.01 -0.05,0.02 h -0.02 -0.02 l -0.03,0.01 h -0.03 l -0.02,0.01 h -0.03 -0.03 -0.03 -0.03 l -0.04,0.01 h -0.03 -0.04 -0.03 -0.04 -0.04 -0.04 -0.04 -0.04 -0.05 -0.04 c -2.24,-2.2 -5.39,-2.23 -6.83,-2.23 v -1.25 c 0.84,0 3.14,0 5.04,0.97 v -17.77 c 0,-1.16 0,-1.61 -3.48,-1.61 h -1.31 v -1.25 c 0.62,0.03 4.9,0.14 6.2,0.14 1.08,0 5.47,-0.11 6.23,-0.14 v 1.25 h -1.32 c -3.49,0 -3.49,0.45 -3.49,1.61 z"
           id="path7330"
           inkscape:connector-curvature="0"
           style="fill:#000000;stroke-width:0" /></g></g><g
       id="g7438"
       transform="matrix(1,0,0,-1,145.98306,159.34947)"><g
         word-spacing="normal"
         letter-spacing="normal"
         font-size-adjust="none"
         font-stretch="normal"
         font-weight="normal"
         font-variant="normal"
         font-style="normal"
         stroke-miterlimit="10.433"
         xml:space="preserve"
         transform="matrix(0.67428571,0,0,-0.67428571,-118,396)"
         id="g7436"
         style="font-style:normal;font-variant:normal;font-weight:normal;font-stretch:normal;letter-spacing:normal;word-spacing:normal;text-anchor:start;fill:none;fill-opacity:1;fill-rule:evenodd;stroke:#000000;stroke-linecap:butt;stroke-linejoin:miter;stroke-miterlimit:10.43299961;stroke-dasharray:none;stroke-dashoffset:0;stroke-opacity:1"><path
           id="path7432"
           d="m 478.83,424.73 v 0.12 0.13 l -0.01,0.12 v 0.11 l -0.01,0.12 -0.01,0.11 -0.01,0.11 -0.02,0.1 -0.03,0.21 -0.03,0.19 -0.05,0.18 -0.04,0.18 -0.06,0.16 -0.06,0.16 -0.06,0.15 -0.07,0.13 -0.07,0.13 -0.07,0.12 -0.08,0.12 -0.08,0.1 -0.08,0.1 -0.09,0.09 -0.08,0.08 -0.09,0.07 -0.09,0.07 -0.09,0.06 -0.1,0.05 -0.09,0.05 -0.09,0.04 -0.09,0.03 -0.09,0.03 -0.1,0.03 -0.09,0.01 -0.08,0.02 h -0.09 -0.09 c -1.25,0 -2.43,-1.29 -2.43,-2.39 0,-0.64 0.25,-0.93 0.79,-1.48 1.05,-1 1.69,-2.3 1.69,-4.09 0,-2.1 -3.03,-13.5 -8.86,-13.5 -2.54,0 -3.69,1.75 -3.69,4.32 0,2.8 1.35,6.44 2.9,10.57 0.34,0.86 0.59,1.54 0.59,2.5 0,2.23 -1.59,4.07 -4.09,4.07 -4.68,0 -6.58,-7.21 -6.58,-7.67 0,-0.5 0.5,-0.5 0.61,-0.5 0.5,0 0.54,0.11 0.79,0.91 1.44,5.03 3.58,6.17 5.03,6.17 0.4,0 1.25,0 1.25,-1.59 0,-1.25 -0.5,-2.6 -0.85,-3.49 -2.19,-5.78 -2.83,-8.08 -2.83,-10.22 0,-5.37 4.37,-6.17 6.67,-6.17 8.37,0 11.2,16.49 11.2,19.08 z"
           inkscape:connector-curvature="0"
           style="fill:#000000;stroke-width:0" /><path
           id="path7434"
           d="m 497.62,409.87 v 0.71 l -0.02,0.68 -0.03,0.66 -0.04,0.64 -0.06,0.62 -0.07,0.6 -0.09,0.57 -0.11,0.56 -0.13,0.55 -0.15,0.53 -0.17,0.51 -0.19,0.5 -0.21,0.49 -0.24,0.48 -0.26,0.47 -0.14,0.23 -0.15,0.23 c -1.08,1.61 -3.23,3 -6.03,3 v -0.98 c 1.89,0 3.7,-1.14 4.33,-3.17 0.56,-1.88 0.59,-4.39 0.59,-7.43 0,-2.57 0,-5.15 -0.45,-7.34 -0.7,-3.17 -3.06,-3.94 -4.47,-3.94 v 0 c -1.59,0 -3.72,0.94 -4.42,3.8 -0.49,2.05 -0.49,4.91 -0.49,7.48 0,2.55 0,5.21 0.52,7.11 0.74,2.75 2.97,3.49 4.39,3.49 v 0.98 c -8.08,0 -8.08,-9.51 -8.08,-12.03 0,-2.5 0,-11.81 8.08,-11.81 8.09,0 8.09,9.31 8.09,11.81 z"
           inkscape:connector-curvature="0"
           style="fill:#000000;stroke-width:0" /></g></g><g
       id="g7554"
       transform="matrix(1,0,0,-1,-198.00001,161.64879)"><g
         id="g7552"
         transform="matrix(0.67428571,0,0,-0.67428571,-118,396)"
         xml:space="preserve"
         stroke-miterlimit="10.433"
         font-style="normal"
         font-variant="normal"
         font-weight="normal"
         font-stretch="normal"
         font-size-adjust="none"
         letter-spacing="normal"
         word-spacing="normal"
         style="font-style:normal;font-variant:normal;font-weight:normal;font-stretch:normal;letter-spacing:normal;word-spacing:normal;text-anchor:start;fill:none;fill-opacity:1;fill-rule:evenodd;stroke:#000000;stroke-linecap:butt;stroke-linejoin:miter;stroke-miterlimit:10.43299961;stroke-dasharray:none;stroke-dashoffset:0;stroke-opacity:1"><path
           d="m 478.83,424.73 v 0.12 0.13 l -0.01,0.12 v 0.11 l -0.01,0.12 -0.01,0.11 -0.01,0.11 -0.02,0.1 -0.03,0.21 -0.03,0.19 -0.05,0.18 -0.04,0.18 -0.06,0.16 -0.06,0.16 -0.06,0.15 -0.07,0.13 -0.07,0.13 -0.07,0.12 -0.08,0.12 -0.08,0.1 -0.08,0.1 -0.09,0.09 -0.08,0.08 -0.09,0.07 -0.09,0.07 -0.09,0.06 -0.1,0.05 -0.09,0.05 -0.09,0.04 -0.09,0.03 -0.09,0.03 -0.1,0.03 -0.09,0.01 -0.08,0.02 h -0.09 -0.09 c -1.25,0 -2.43,-1.29 -2.43,-2.39 0,-0.64 0.25,-0.93 0.79,-1.48 1.05,-1 1.69,-2.3 1.69,-4.09 0,-2.1 -3.03,-13.5 -8.86,-13.5 -2.54,0 -3.69,1.75 -3.69,4.32 0,2.8 1.35,6.44 2.9,10.57 0.34,0.86 0.59,1.54 0.59,2.5 0,2.23 -1.59,4.07 -4.09,4.07 -4.68,0 -6.58,-7.21 -6.58,-7.67 0,-0.5 0.5,-0.5 0.61,-0.5 0.5,0 0.54,0.11 0.79,0.91 1.44,5.03 3.58,6.17 5.03,6.17 0.4,0 1.25,0 1.25,-1.59 0,-1.25 -0.5,-2.6 -0.85,-3.49 -2.19,-5.78 -2.83,-8.08 -2.83,-10.22 0,-5.37 4.37,-6.17 6.67,-6.17 8.37,0 11.2,16.49 11.2,19.08 z"
           id="path7544"
           inkscape:connector-curvature="0"
           style="fill:#000000;stroke-width:0" /><path
           d="m 494.77,401.59 -0.02,-0.07 -0.02,-0.07 -0.02,-0.07 -0.01,-0.07 -0.02,-0.08 -0.02,-0.08 -0.04,-0.15 -0.04,-0.17 -0.04,-0.16 -0.04,-0.16 -0.02,-0.07 -0.02,-0.08 -0.02,-0.08 -0.02,-0.07 -0.01,-0.07 -0.02,-0.07 -0.02,-0.07 -0.01,-0.06 -0.01,-0.06 -0.02,-0.06 -0.01,-0.05 -0.01,-0.05 -0.01,-0.04 -0.01,-0.04 v -0.04 l -0.01,-0.03 v -0.02 -0.02 c 0,-0.77 0.63,-1.11 1.17,-1.11 0.64,0 1.19,0.45 1.36,0.76 0.19,0.32 0.46,1.43 0.64,2.16 0.17,0.66 0.55,2.27 0.77,3.14 0.2,0.77 0.4,1.53 0.59,2.33 0.38,1.5 0.38,1.56 1.08,2.65 1.11,1.71 2.86,3.69 5.56,3.69 1.96,0 2.07,-1.61 2.07,-2.44 0,-2.09 -1.5,-5.95 -2.07,-7.42 -0.37,-0.98 -0.51,-1.29 -0.51,-1.89 0,-1.84 1.53,-2.98 3.31,-2.98 3.48,0 5.02,4.79 5.02,5.33 0,0.45 -0.46,0.45 -0.57,0.45 -0.48,0 -0.51,-0.2 -0.65,-0.59 -0.8,-2.79 -2.3,-4.22 -3.69,-4.22 -0.74,0 -0.88,0.48 -0.88,1.22 0,0.79 0.18,1.25 0.8,2.82 0.42,1.08 1.84,4.77 1.84,6.72 0,0.56 0,2.03 -1.28,3.03 -0.59,0.46 -1.61,0.94 -3.25,0.94 -3.12,0 -5.04,-2.05 -6.15,-3.51 -0.28,2.96 -2.77,3.51 -4.53,3.51 -2.89,0 -4.85,-1.76 -5.89,-3.16 -0.25,2.4 -2.3,3.16 -3.74,3.16 -1.5,0 -2.3,-1.08 -2.75,-1.87 -0.76,-1.29 -1.25,-3.29 -1.25,-3.46 0,-0.45 0.49,-0.45 0.6,-0.45 0.48,0 0.51,0.11 0.76,1.05 0.52,2.06 1.19,3.76 2.55,3.76 0.9,0 1.14,-0.76 1.14,-1.7 0,-0.67 -0.31,-1.95 -0.56,-2.89 -0.24,-0.95 -0.58,-2.38 -0.77,-3.14 l -1.11,-4.47 c -0.14,-0.44 -0.34,-1.31 -0.34,-1.42 0,-0.77 0.62,-1.11 1.18,-1.11 0.63,0 1.18,0.45 1.36,0.76 0.18,0.32 0.46,1.43 0.63,2.16 0.17,0.66 0.55,2.27 0.76,3.14 0.21,0.77 0.43,1.53 0.6,2.33 0.37,1.44 0.45,1.7 1.45,3.14 0.99,1.39 2.63,3.2 5.24,3.2 2.01,0 2.04,-1.78 2.04,-2.44 0,-0.87 -0.09,-1.32 -0.59,-3.28 z"
           id="path7546"
           inkscape:connector-curvature="0"
           style="fill:#000000;stroke-width:0" /><path
           d="m 531.18,406.64 h 10.66 c 0.45,0 1.28,0 1.28,0.84 0,0.86 -0.8,0.86 -1.28,0.86 h -10.66 v 10.7 c 0,0.46 0,1.28 -0.84,1.28 -0.88,0 -0.88,-0.79 -0.88,-1.28 v -10.7 h -10.69 c -0.45,0 -1.29,0 -1.29,-0.83 0,-0.87 0.79,-0.87 1.29,-0.87 h 10.69 v -10.71 c 0,-0.45 0,-1.28 0.84,-1.28 0.88,0 0.88,0.8 0.88,1.28 z"
           id="path7548"
           inkscape:connector-curvature="0"
           style="fill:#000000;stroke-width:0" /><path
           d="m 557.31,420.92 v 0.04 0.04 0.05 0.04 0.03 0.04 0.04 l -0.01,0.03 v 0.04 0.03 0.03 0.03 l -0.01,0.03 v 0.03 0.03 l -0.01,0.02 v 0.03 l -0.01,0.02 v 0.03 l -0.01,0.02 -0.01,0.04 -0.01,0.04 -0.02,0.03 -0.02,0.03 -0.02,0.03 -0.03,0.03 -0.02,0.02 -0.03,0.02 -0.04,0.02 -0.03,0.01 -0.04,0.01 -0.05,0.02 h -0.02 -0.03 l -0.02,0.01 h -0.03 l -0.03,0.01 h -0.03 -0.03 -0.03 -0.03 l -0.03,0.01 h -0.04 -0.03 -0.04 -0.03 -0.04 -0.04 -0.05 -0.04 -0.04 -0.05 c -2.23,-2.2 -5.39,-2.23 -6.83,-2.23 v -1.25 c 0.85,0 3.14,0 5.05,0.97 v -17.77 c 0,-1.16 0,-1.61 -3.48,-1.61 h -1.32 v -1.25 c 0.63,0.03 4.91,0.14 6.21,0.14 1.08,0 5.46,-0.11 6.23,-0.14 v 1.25 h -1.33 c -3.48,0 -3.48,0.45 -3.48,1.61 z"
           id="path7550"
           inkscape:connector-curvature="0"
           style="fill:#000000;stroke-width:0" /></g></g><g
       id="g7676"
       transform="matrix(1,0,0,-1,-12.584749,532.88961)"><g
         word-spacing="normal"
         letter-spacing="normal"
         font-size-adjust="none"
         font-stretch="normal"
         font-weight="normal"
         font-variant="normal"
         font-style="normal"
         stroke-miterlimit="10.433"
         xml:space="preserve"
         transform="matrix(0.67428571,0,0,-0.67428571,-118,396)"
         id="g7674"
         style="font-style:normal;font-variant:normal;font-weight:normal;font-stretch:normal;letter-spacing:normal;word-spacing:normal;text-anchor:start;fill:none;fill-opacity:1;fill-rule:evenodd;stroke:#000000;stroke-linecap:butt;stroke-linejoin:miter;stroke-miterlimit:10.43299961;stroke-dasharray:none;stroke-dashoffset:0;stroke-opacity:1"><path
           id="path7672"
           d="m 478.04,427.67 -0.01,0.02 v 0.02 0.02 0.02 l -0.01,0.02 v 0.02 l -0.01,0.02 v 0.02 l -0.01,0.02 -0.01,0.02 -0.01,0.02 -0.01,0.03 -0.01,0.02 -0.01,0.02 -0.02,0.02 -0.01,0.01 -0.02,0.02 -0.01,0.02 -0.02,0.02 -0.02,0.01 -0.02,0.02 -0.02,0.01 -0.02,0.02 -0.03,0.01 -0.02,0.01 -0.03,0.01 -0.02,0.01 h -0.03 l -0.03,0.01 h -0.03 l -0.03,0.01 h -0.02 -0.01 c -0.55,0 -2.54,-1.99 -3.38,-3.44 -1.11,2.69 -3.05,3.48 -4.64,3.48 v -1.09 c 3.23,0 3.94,-4.03 3.94,-4.37 0,-0.32 -2.74,-11.22 -2.89,-11.43 -0.75,-1.39 -3.53,-4.57 -6.33,-4.57 v 0 c -2.99,0 -3.19,3.84 -3.19,4.68 0,2.39 1.44,7.82 2.3,9.91 1.53,3.69 4.12,5.78 6.17,5.78 v 1.09 c -5.88,0 -12,-7.37 -12,-14.59 0,-4.87 2.94,-7.97 6.56,-7.97 2.16,0 4.1,1.19 5.89,2.99 -0.45,-1.74 -2.09,-8.47 -2.25,-8.93 -0.39,-1.39 -0.79,-1.59 -3.58,-1.64 -0.65,0 -1.15,0 -1.15,-1 0,-0.04 0,-0.54 0.65,-0.54 1.6,0 3.33,0.15 4.99,0.15 1.69,0 3.48,-0.15 5.12,-0.15 0.25,0 0.89,0 0.89,1 0,0.54 -0.48,0.54 -1.28,0.54 -2.4,0 -2.4,0.36 -2.4,0.8 0,0.36 0.11,0.66 0.2,1.09 z"
           inkscape:connector-curvature="0"
           style="fill:#000000;stroke-width:0" /></g></g></g></svg>