<?xml version="1.0" encoding="UTF-8"?>
<!DOCTYPE svg PUBLIC "-//W3C//DTD SVG 1.1//EN"
    "http://www.w3.org/Graphics/SVG/1.1/DTD/svg11.dtd"><svg xmlns="http://www.w3.org/2000/svg" height="400.0000" stroke-opacity="1" viewBox="0 0 400 400" font-size="1" width="400.0000" xmlns:xlink="http://www.w3.org/1999/xlink" stroke="rgb(0,0,0)" version="1.1"><defs></defs><defs></defs><g stroke-linejoin="miter" stroke-opacity="1.0" fill-opacity="0.0" stroke="rgb(0,0,0)" stroke-width="6.0" fill="rgb(0,0,0)" stroke-linecap="butt" stroke-miterlimit="10.0"><path d="M 4.1136,3.9753 v 15.9550 l 63.9563,-8.0043 l 36.1239,3.8145 l -64.1490,20.0912 l -15.7483,-8.1651 l -24.1682,8.3260 l 4.1136,63.8198 l 7.9705,-19.9303 l 3.8568,-36.2070 l 27.9608,20.0375 l 24.3608,-11.8724 l 47.9512,55.9228 l 91.7246,-27.9882 l -27.7040,-3.9217 l -52.2575,19.7694 l -23.7830,-35.8853 l 48.0154,-39.8606 l 7.8421,19.9303 l -23.9114,16.1158 l 15.7483,15.6869 l 32.0745,-39.6461 l 4.3063,-12.1941 l 23.9114,28.0418 l -32.2671,15.7941 l 52.0006,12.3013 l -3.9210,23.8520 l -23.8472,-7.7898 l 15.8125,27.7737 l -27.9608,-19.8767 l 3.9852,31.9099 l -19.9904,-31.9635 l -16.0051,39.9678 l -23.7830,-23.9592 l -32.0745,11.9796 l -35.9955,-48.1330 l -39.9807,-4.0290 l -16.0693,40.3432 l 31.9461,55.6547 l 32.1387,-11.9260 l -36.1881,-51.8402 l 11.9557,-4.1898 l 32.2029,32.0172 l -0.0642,36.0997 l 12.0841,7.8971 l -44.2870,0.0536 l 20.2472,19.8767 l -40.1091,-19.6622 l 16.0693,31.8563 l -28.1535,-35.9389 l 4.0494,-28.0954 l -19.8620,4.0290 l 24.1040,59.8981 h -16.0051 l -0.3210,-27.8273 l -12.0199,7.7362 l 8.0989,36.0461 h 19.9904 l 4.0494,12.3013 l -27.8966,-4.0826 l -3.8568,16.0622 l 7.7778,3.9753 l 3.9852,-12.0869 l 20.1188,7.8971 l -4.0494,12.1941 l -8.0989,-4.0826 l 0.1926,-11.8724 l -4.2421,-0.0536 l -3.9852,19.9303 h -8.0347 l -3.7926,11.7651 l 23.9114,0.0536 l 15.8767,-15.8477 l 20.2472,11.9796 l -16.2620,7.8971 l -3.8568,-11.7651 l -11.9557,19.7158 l -28.0250,0.1072 l 24.1040,4.2434 l -8.2915,19.6622 l -15.8125,0.0536 l 19.9904,12.1405 l -20.1830,8.0043 l 28.1535,7.9507 l -28.0892,11.8724 l 32.1387,4.1898 l -15.9409,7.9507 l -12.0841,-8.1651 l -4.1778,12.3013 l 44.1586,11.7115 l -0.0642,-19.7694 l 12.2125,11.7115 l 16.0051,8.3260 l -24.2324,8.0043 l 116.2138,8.0579 l 20.0546,-68.1169 l -52.1291,3.8145 l 4.1778,23.9056 l 23.8472,-11.8188 l -12.1483,28.0418 l -71.9268,-0.1072 l -35.8029,-35.7244 l 15.8125,-52.2692 l 16.1978,8.1115 l -16.0693,32.1244 l 31.8177,31.9635 l 28.0250,3.9217 l 12.0199,-40.1287 l -31.8819,-8.0043 l 11.8915,-19.7158 l 47.8870,27.9882 l 24.0398,-32.0708 l -40.0449,-19.9839 l -15.8767,-32.0708 l 4.1136,-11.9796 l -48.2080,47.8113 l -31.8819,-19.7694 l -0.1284,-24.2273 l 24.2966,-3.9217 l 55.6648,-48.1330 l -8.0347,-19.7158 l 24.2324,-0.2145 l 7.9063,20.1984 l -27.8966,23.9592 l -27.8966,23.7984 l -32.2029,12.1941 l 3.9852,19.7694 l 24.1682,-3.8145 l 19.8620,-20.0375 l 0.1926,-12.0869 l 11.8915,-4.0290 l 28.0250,24.1201 l 39.8523,27.9346 l -3.9852,31.9635 l 35.8671,0.2681 l -7.8421,31.8027 l -27.7682,31.9099 l 52.0006,24.2810 h 51.6154 l 84.0751,-0.2145 l 16.1335,-35.9389 l -3.9852,-43.9432 l -39.9165,7.8434 l 0.0642,32.1244 l -20.1188,20.0375 l -36.0597,-4.0826 l -48.1438,7.9507 l -3.9852,-60.1126 l 44.2228,0.2681 l -19.9904,27.8810 l 63.8921,11.9796 l 12.1483,-16.1158 l -28.2819,-3.7609 l 3.9852,-32.0708 l 68.1342,-3.8681 l -51.8722,-8.1115 l -23.9756,-4.0826 l 39.9165,-8.0043 l 8.0989,-19.8231 l -16.0693,-15.9550 l -8.0347,23.9056 l -47.8870,11.7651 l 15.8767,32.0708 l -23.8472,-7.7362 l -12.3409,-24.0129 l -19.8620,19.7694 l -28.1535,-15.9550 l 0.0642,-27.8810 l -59.9711,-35.9389 l 79.8973,16.0622 l -55.7933,-35.9925 l 55.8575,23.9592 l 0.0642,-24.0129 l -23.9756,11.8188 l 12.2125,-20.0375 l -28.2819,0.2145 l 12.2767,-15.9550 l -4.0494,-16.0086 l -35.9955,39.8070 l 7.7136,-43.9968 h 36.0597 l 48.2722,72.0922 l -28.2177,27.7201 h 84.0109 l -32.0103,-15.7405 l 19.9262,-11.8724 l -31.7535,-16.1158 l 19.8620,-35.9389 l 43.9018,15.9550 l -19.7978,19.8767 l -16.2620,-20.0912 l -7.6494,16.0622 l 35.6103,16.0622 l 20.3114,-23.7984 l 24.0398,11.8188 l -44.2870,24.0129 l 24.2966,-4.0826 l 19.7335,16.0086 l 0.0642,32.0172 l -15.8125,7.9507 l 35.6745,3.9753 l -7.9063,-24.0129 h 11.9557 l -0.0642,-23.6912 l 0.0642,-48.0794 l -11.8273,-11.9260 l -4.2421,-16.2767 l -15.7483,12.1941 l -12.2125,-16.0086 l -7.6494,19.9303 l -20.0546,-23.9056 l -12.1483,15.7405 l -3.9852,-31.8027 l -48.0154,-4.0290 l 20.0546,12.0869 l -12.2125,23.9056 l -27.6398,-44.0504 l 11.6989,-56.0836 l 64.0848,3.9217 l 0.1284,4.3507 l -60.0995,7.6826 l 11.9557,40.1287 l 28.0892,-11.8724 l 31.7535,28.0954 l 56.3711,7.7898 l 15.6199,-48.0794 l -31.8819,-3.8681 l -12.0841,19.8767 l -19.6693,-51.9475 l 43.7734,-4.1362 l 0.2568,-63.8735 l -16.0051,44.0504 l -4.1136,-44.0504 l -4.2421,44.1040 l -11.8915,-24.0129 l 8.2273,-20.0375 h -8.3557 l -11.7631,27.8810 l 4.1136,20.1984 h -12.3409 l -3.7926,-51.8938 l -11.8915,47.9721 l -8.2915,-44.1576 l -7.8421,36.0997 l -4.0494,-36.1534 h -28.1535 l 8.0989,11.9796 l 0.1926,20.0375 l 23.8472,20.0912 l -27.8966,3.9753 l -16.1978,-27.9882 l -3.6642,-27.8810 l -40.3660,-0.1072 Z"/></g><defs></defs><g stroke-linejoin="miter" stroke-opacity="1.0" fill-opacity="0.0" opacity="1.0" stroke="rgb(255,0,0)" stroke-width="6.0" fill="rgb(0,0,0)" stroke-linecap="butt" stroke-miterlimit="10.0"><path d="M 84.9691,102.0074 l -10.7264,5.1271 "/></g><defs></defs><g stroke-linejoin="miter" stroke-opacity="1.0" fill-opacity="1.0" opacity="1.0" stroke="rgb(255,0,0)" stroke-width="0.0" fill="rgb(255,0,0)" stroke-linecap="butt" stroke-miterlimit="10.0"></g><defs></defs><g stroke-linejoin="miter" stroke-opacity="1.0" fill-opacity="1.0" opacity="1.0" stroke="rgb(255,0,0)" stroke-width="0.0" fill="rgb(255,0,0)" stroke-linecap="butt" stroke-miterlimit="10.0"></g><defs></defs><g stroke-linejoin="miter" stroke-opacity="1.0" fill-opacity="1.0" opacity="1.0" stroke="rgb(255,0,0)" stroke-width="0.0" fill="rgb(255,0,0)" stroke-linecap="butt" stroke-miterlimit="10.0"><path d="M 61.6116,113.1721 l 15.6166,-2.0691 l -4.4084,-3.2883 l 0.2097,-5.4957 Z"/></g><defs></defs><g stroke-linejoin="miter" stroke-opacity="1.0" fill-opacity="1.0" opacity="1.0" stroke="rgb(255,0,0)" stroke-width="0.0" fill="rgb(255,0,0)" stroke-linecap="butt" stroke-miterlimit="10.0"><path d="M 72.8198,107.8147 l 1.4230,-0.6802 l 1.2938,2.7067 l -2.7168,-2.0265 l 1.4230,-0.6802 l -1.2938,-2.7067 Z"/></g><defs></defs><g stroke-linejoin="miter" stroke-opacity="1.0" fill-opacity="0.0" opacity="0.9409" stroke="rgb(255,0,0)" stroke-width="6.0" fill="rgb(0,0,0)" stroke-linecap="butt" stroke-miterlimit="10.0"><path d="M 73.6831,125.1740 l 5.1546,-10.5807 "/></g><defs></defs><g stroke-linejoin="miter" stroke-opacity="1.0" fill-opacity="1.0" opacity="0.97" stroke="rgb(255,0,0)" stroke-width="0.0" fill="rgb(255,0,0)" stroke-linecap="butt" stroke-miterlimit="10.0"></g><defs></defs><g stroke-linejoin="miter" stroke-opacity="1.0" fill-opacity="1.0" opacity="0.9409" stroke="rgb(255,0,0)" stroke-width="0.0" fill="rgb(255,0,0)" stroke-linecap="butt" stroke-miterlimit="10.0"></g><defs></defs><g stroke-linejoin="miter" stroke-opacity="1.0" fill-opacity="1.0" opacity="0.97" stroke="rgb(255,0,0)" stroke-width="0.0" fill="rgb(255,0,0)" stroke-linecap="butt" stroke-miterlimit="10.0"><path d="M 84.9691,102.0074 l -10.9378,11.3368 l 5.4971,-0.1688 l 3.2554,4.4327 Z"/></g><defs></defs><g stroke-linejoin="miter" stroke-opacity="1.0" fill-opacity="1.0" opacity="0.9409" stroke="rgb(255,0,0)" stroke-width="0.0" fill="rgb(255,0,0)" stroke-linecap="butt" stroke-miterlimit="10.0"><path d="M 79.5284,113.1755 l -0.6907,1.4179 l -2.6970,-1.3139 l 3.3877,-0.1040 l -0.6907,1.4179 l 2.6970,1.3139 Z"/></g><defs></defs><g stroke-linejoin="miter" stroke-opacity="1.0" fill-opacity="0.0" opacity="0.8852928099999999" stroke="rgb(255,0,0)" stroke-width="6.0" fill="rgb(0,0,0)" stroke-linecap="butt" stroke-miterlimit="10.0"><path d="M 97.0580,118.1726 l -9.9636,2.9844 "/></g><defs></defs><g stroke-linejoin="miter" stroke-opacity="1.0" fill-opacity="1.0" opacity="0.9409" stroke="rgb(255,0,0)" stroke-width="0.0" fill="rgb(255,0,0)" stroke-linecap="butt" stroke-miterlimit="10.0"></g><defs></defs><g stroke-linejoin="miter" stroke-opacity="1.0" fill-opacity="1.0" opacity="0.8852928099999999" stroke="rgb(255,0,0)" stroke-width="0.0" fill="rgb(255,0,0)" stroke-linecap="butt" stroke-miterlimit="10.0"></g><defs></defs><g stroke-linejoin="miter" stroke-opacity="1.0" fill-opacity="1.0" opacity="0.9409" stroke="rgb(255,0,0)" stroke-width="0.0" fill="rgb(255,0,0)" stroke-linecap="butt" stroke-miterlimit="10.0"><path d="M 73.6831,125.1740 l 15.7488,0.3644 l -3.8484,-3.9289 l 1.0549,-5.3976 Z"/></g><defs></defs><g stroke-linejoin="miter" stroke-opacity="1.0" fill-opacity="1.0" opacity="0.8852928099999999" stroke="rgb(255,0,0)" stroke-width="0.0" fill="rgb(255,0,0)" stroke-linecap="butt" stroke-miterlimit="10.0"><path d="M 85.5836,121.6095 l 1.5109,-0.4525 l 0.8608,2.8739 l -2.3717,-2.4213 l 1.5109,-0.4525 l -0.8608,-2.8739 Z"/></g><defs></defs><g stroke-linejoin="miter" stroke-opacity="1.0" fill-opacity="0.0" opacity="0.8329720049289999" stroke="rgb(255,0,0)" stroke-width="6.0" fill="rgb(0,0,0)" stroke-linecap="butt" stroke-miterlimit="10.0"><path d="M 84.2268,158.7074 l 8.6062,-27.1876 "/></g><defs></defs><g stroke-linejoin="miter" stroke-opacity="1.0" fill-opacity="1.0" opacity="0.912673" stroke="rgb(255,0,0)" stroke-width="0.0" fill="rgb(255,0,0)" stroke-linecap="butt" stroke-miterlimit="10.0"></g><defs></defs><g stroke-linejoin="miter" stroke-opacity="1.0" fill-opacity="1.0" opacity="0.8329720049289999" stroke="rgb(255,0,0)" stroke-width="0.0" fill="rgb(255,0,0)" stroke-linecap="butt" stroke-miterlimit="10.0"></g><defs></defs><g stroke-linejoin="miter" stroke-opacity="1.0" fill-opacity="1.0" opacity="0.912673" stroke="rgb(255,0,0)" stroke-width="0.0" fill="rgb(255,0,0)" stroke-linecap="butt" stroke-miterlimit="10.0"><path d="M 97.0580,118.1726 l -9.1624,12.8144 l 5.4133,-0.9708 l 3.8686,3.9090 Z"/></g><defs></defs><g stroke-linejoin="miter" stroke-opacity="1.0" fill-opacity="1.0" opacity="0.8329720049289999" stroke="rgb(255,0,0)" stroke-width="0.0" fill="rgb(255,0,0)" stroke-linecap="butt" stroke-miterlimit="10.0"><path d="M 93.3090,130.0162 l -0.4760,1.5037 l -2.8601,-0.9054 l 3.3361,-0.5983 l -0.4760,1.5037 l 2.8601,0.9054 Z"/></g><defs></defs><g stroke-linejoin="miter" stroke-opacity="1.0" fill-opacity="0.0" opacity="0.783743359437696" stroke="rgb(255,0,0)" stroke-width="6.0" fill="rgb(0,0,0)" stroke-linecap="butt" stroke-miterlimit="10.0"><path d="M 122.2179,165.3516 l -24.2004,-4.2324 "/></g><defs></defs><g stroke-linejoin="miter" stroke-opacity="1.0" fill-opacity="1.0" opacity="0.8852928099999999" stroke="rgb(255,0,0)" stroke-width="0.0" fill="rgb(255,0,0)" stroke-linecap="butt" stroke-miterlimit="10.0"></g><defs></defs><g stroke-linejoin="miter" stroke-opacity="1.0" fill-opacity="1.0" opacity="0.783743359437696" stroke="rgb(255,0,0)" stroke-width="0.0" fill="rgb(255,0,0)" stroke-linecap="butt" stroke-miterlimit="10.0"></g><defs></defs><g stroke-linejoin="miter" stroke-opacity="1.0" fill-opacity="1.0" opacity="0.8852928099999999" stroke="rgb(255,0,0)" stroke-width="0.0" fill="rgb(255,0,0)" stroke-linecap="butt" stroke-miterlimit="10.0"><path d="M 84.2268,158.7074 l 13.9194,7.3762 l -1.6824,-5.2361 l 3.3596,-4.3543 Z"/></g><defs></defs><g stroke-linejoin="miter" stroke-opacity="1.0" fill-opacity="1.0" opacity="0.783743359437696" stroke="rgb(255,0,0)" stroke-width="0.0" fill="rgb(255,0,0)" stroke-linecap="butt" stroke-miterlimit="10.0"><path d="M 96.4639,160.8476 l 1.5536,0.2717 l -0.5168,2.9551 l -1.0368,-3.2269 l 1.5536,0.2717 l 0.5168,-2.9551 Z"/></g><defs></defs><g stroke-linejoin="miter" stroke-opacity="1.0" fill-opacity="0.0" opacity="0.7374241268949281" stroke="rgb(255,0,0)" stroke-width="6.0" fill="rgb(0,0,0)" stroke-linecap="butt" stroke-miterlimit="10.0"><path d="M 57.8643,230.1161 l 54.4857,-54.8335 "/></g><defs></defs><g stroke-linejoin="miter" stroke-opacity="1.0" fill-opacity="1.0" opacity="0.8587340256999999" stroke="rgb(255,0,0)" stroke-width="0.0" fill="rgb(255,0,0)" stroke-linecap="butt" stroke-miterlimit="10.0"></g><defs></defs><g stroke-linejoin="miter" stroke-opacity="1.0" fill-opacity="1.0" opacity="0.7374241268949281" stroke="rgb(255,0,0)" stroke-width="0.0" fill="rgb(255,0,0)" stroke-linecap="butt" stroke-miterlimit="10.0"></g><defs></defs><g stroke-linejoin="miter" stroke-opacity="1.0" fill-opacity="1.0" opacity="0.8587340256999999" stroke="rgb(255,0,0)" stroke-width="0.0" fill="rgb(255,0,0)" stroke-linecap="butt" stroke-miterlimit="10.0"><path d="M 122.2179,165.3516 l -14.0132,7.1964 l 5.2570,1.6158 l 1.6492,5.2466 Z"/></g><defs></defs><g stroke-linejoin="miter" stroke-opacity="1.0" fill-opacity="1.0" opacity="0.7374241268949281" stroke="rgb(255,0,0)" stroke-width="0.0" fill="rgb(255,0,0)" stroke-linecap="butt" stroke-miterlimit="10.0"><path d="M 113.4617,174.1638 l -1.1117,1.1188 l -2.1281,-2.1146 l 3.2397,0.9958 l -1.1117,1.1188 l 2.1281,2.1146 Z"/></g><defs></defs><g stroke-linejoin="miter" stroke-opacity="1.0" fill-opacity="0.0" opacity="0.6938423609954378" stroke="rgb(255,0,0)" stroke-width="6.0" fill="rgb(0,0,0)" stroke-linecap="butt" stroke-miterlimit="10.0"><path d="M 71.9206,199.4642 l -8.2205,17.9261 "/></g><defs></defs><g stroke-linejoin="miter" stroke-opacity="1.0" fill-opacity="1.0" opacity="0.8329720049289999" stroke="rgb(255,0,0)" stroke-width="0.0" fill="rgb(255,0,0)" stroke-linecap="butt" stroke-miterlimit="10.0"></g><defs></defs><g stroke-linejoin="miter" stroke-opacity="1.0" fill-opacity="1.0" opacity="0.6938423609954378" stroke="rgb(255,0,0)" stroke-width="0.0" fill="rgb(255,0,0)" stroke-linecap="butt" stroke-miterlimit="10.0"></g><defs></defs><g stroke-linejoin="miter" stroke-opacity="1.0" fill-opacity="1.0" opacity="0.8329720049289999" stroke="rgb(255,0,0)" stroke-width="0.0" fill="rgb(255,0,0)" stroke-linecap="butt" stroke-miterlimit="10.0"><path d="M 57.8643,230.1161 l 10.6700,-11.5892 l -5.4917,0.2971 l -3.3581,-4.3555 Z"/></g><defs></defs><g stroke-linejoin="miter" stroke-opacity="1.0" fill-opacity="1.0" opacity="0.6938423609954378" stroke="rgb(255,0,0)" stroke-width="0.0" fill="rgb(255,0,0)" stroke-linecap="butt" stroke-miterlimit="10.0"><path d="M 63.0426,218.8240 l 0.6574,-1.4336 l 2.7269,1.2505 l -3.3844,0.1831 l 0.6574,-1.4336 l -2.7269,-1.2505 Z"/></g><defs></defs><g stroke-linejoin="miter" stroke-opacity="1.0" fill-opacity="0.0" opacity="0.6528362774606075" stroke="rgb(255,0,0)" stroke-width="6.0" fill="rgb(0,0,0)" stroke-linecap="butt" stroke-miterlimit="10.0"><path d="M 79.2078,221.8665 l -2.9565,-9.0890 "/></g><defs></defs><g stroke-linejoin="miter" stroke-opacity="1.0" fill-opacity="1.0" opacity="0.8079828447811299" stroke="rgb(255,0,0)" stroke-width="0.0" fill="rgb(255,0,0)" stroke-linecap="butt" stroke-miterlimit="10.0"></g><defs></defs><g stroke-linejoin="miter" stroke-opacity="1.0" fill-opacity="1.0" opacity="0.6528362774606075" stroke="rgb(255,0,0)" stroke-width="0.0" fill="rgb(255,0,0)" stroke-linecap="butt" stroke-miterlimit="10.0"></g><defs></defs><g stroke-linejoin="miter" stroke-opacity="1.0" fill-opacity="1.0" opacity="0.8079828447811299" stroke="rgb(255,0,0)" stroke-width="0.0" fill="rgb(255,0,0)" stroke-linecap="butt" stroke-miterlimit="10.0"><path d="M 71.9206,199.4642 l 0.0053,15.7531 l 3.8375,-3.9395 l 5.4209,0.9279 Z"/></g><defs></defs><g stroke-linejoin="miter" stroke-opacity="1.0" fill-opacity="1.0" opacity="0.6528362774606075" stroke="rgb(255,0,0)" stroke-width="0.0" fill="rgb(255,0,0)" stroke-linecap="butt" stroke-miterlimit="10.0"><path d="M 75.7634,211.2777 l 0.4879,1.4998 l -2.8529,0.9280 l 2.3650,-2.4278 l 0.4879,1.4998 l 2.8529,-0.9280 Z"/></g><defs></defs><g stroke-linejoin="miter" stroke-opacity="1.0" fill-opacity="0.0" opacity="0.6142536534626856" stroke="rgb(255,0,0)" stroke-width="6.0" fill="rgb(0,0,0)" stroke-linecap="butt" stroke-miterlimit="10.0"><path d="M 21.4147,227.6665 l 43.8631,-4.4020 "/></g><defs></defs><g stroke-linejoin="miter" stroke-opacity="1.0" fill-opacity="1.0" opacity="0.783743359437696" stroke="rgb(255,0,0)" stroke-width="0.0" fill="rgb(255,0,0)" stroke-linecap="butt" stroke-miterlimit="10.0"></g><defs></defs><g stroke-linejoin="miter" stroke-opacity="1.0" fill-opacity="1.0" opacity="0.6142536534626856" stroke="rgb(255,0,0)" stroke-width="0.0" fill="rgb(255,0,0)" stroke-linecap="butt" stroke-miterlimit="10.0"></g><defs></defs><g stroke-linejoin="miter" stroke-opacity="1.0" fill-opacity="1.0" opacity="0.783743359437696" stroke="rgb(255,0,0)" stroke-width="0.0" fill="rgb(255,0,0)" stroke-linecap="butt" stroke-miterlimit="10.0"><path d="M 79.2078,221.8665 l -15.3933,-3.3476 l 3.0325,4.5881 l -2.0604,5.0992 Z"/></g><defs></defs><g stroke-linejoin="miter" stroke-opacity="1.0" fill-opacity="1.0" opacity="0.6142536534626856" stroke="rgb(255,0,0)" stroke-width="0.0" fill="rgb(255,0,0)" stroke-linecap="butt" stroke-miterlimit="10.0"><path d="M 66.8471,223.1070 l -1.5693,0.1575 l -0.2996,-2.9850 l 1.8689,2.8275 l -1.5693,0.1575 l 0.2996,2.9850 Z"/></g><defs></defs><g stroke-linejoin="miter" stroke-opacity="1.0" fill-opacity="0.0" opacity="0.5779512625430407" stroke="rgb(255,0,0)" stroke-width="6.0" fill="rgb(0,0,0)" stroke-linecap="butt" stroke-miterlimit="10.0"><path d="M 46.9165,210.1701 l -13.9576,9.5761 "/></g><defs></defs><g stroke-linejoin="miter" stroke-opacity="1.0" fill-opacity="1.0" opacity="0.7602310586545651" stroke="rgb(255,0,0)" stroke-width="0.0" fill="rgb(255,0,0)" stroke-linecap="butt" stroke-miterlimit="10.0"></g><defs></defs><g stroke-linejoin="miter" stroke-opacity="1.0" fill-opacity="1.0" opacity="0.5779512625430407" stroke="rgb(255,0,0)" stroke-width="0.0" fill="rgb(255,0,0)" stroke-linecap="butt" stroke-miterlimit="10.0"></g><defs></defs><g stroke-linejoin="miter" stroke-opacity="1.0" fill-opacity="1.0" opacity="0.7602310586545651" stroke="rgb(255,0,0)" stroke-width="0.0" fill="rgb(255,0,0)" stroke-linecap="butt" stroke-miterlimit="10.0"><path d="M 21.4147,227.6665 l 15.1080,-4.4618 l -4.8643,-2.5662 l -0.6437,-5.4619 Z"/></g><defs></defs><g stroke-linejoin="miter" stroke-opacity="1.0" fill-opacity="1.0" opacity="0.5779512625430407" stroke="rgb(255,0,0)" stroke-width="0.0" fill="rgb(255,0,0)" stroke-linecap="butt" stroke-miterlimit="10.0"><path d="M 31.6583,220.6385 l 1.3005,-0.8923 l 1.6972,2.4738 l -2.9977,-1.5815 l 1.3005,-0.8923 l -1.6972,-2.4738 Z"/></g><defs></defs><g stroke-linejoin="miter" stroke-opacity="1.0" fill-opacity="0.0" opacity="0.543794342926747" stroke="rgb(255,0,0)" stroke-width="6.0" fill="rgb(0,0,0)" stroke-linecap="butt" stroke-miterlimit="10.0"><path d="M 6.2548,219.4588 l 27.0133,-6.1709 "/></g><defs></defs><g stroke-linejoin="miter" stroke-opacity="1.0" fill-opacity="1.0" opacity="0.7374241268949281" stroke="rgb(255,0,0)" stroke-width="0.0" fill="rgb(255,0,0)" stroke-linecap="butt" stroke-miterlimit="10.0"></g><defs></defs><g stroke-linejoin="miter" stroke-opacity="1.0" fill-opacity="1.0" opacity="0.543794342926747" stroke="rgb(255,0,0)" stroke-width="0.0" fill="rgb(255,0,0)" stroke-linecap="butt" stroke-miterlimit="10.0"></g><defs></defs><g stroke-linejoin="miter" stroke-opacity="1.0" fill-opacity="1.0" opacity="0.7374241268949281" stroke="rgb(255,0,0)" stroke-width="0.0" fill="rgb(255,0,0)" stroke-linecap="butt" stroke-miterlimit="10.0"><path d="M 46.9165,210.1701 l -15.6899,-1.4092 l 3.5791,4.1758 l -1.4109,5.3157 Z"/></g><defs></defs><g stroke-linejoin="miter" stroke-opacity="1.0" fill-opacity="1.0" opacity="0.543794342926747" stroke="rgb(255,0,0)" stroke-width="0.0" fill="rgb(255,0,0)" stroke-linecap="butt" stroke-miterlimit="10.0"><path d="M 34.8057,212.9366 l -1.5376,0.3512 l -0.6681,-2.9247 l 2.2057,2.5734 l -1.5376,0.3512 l 0.6681,2.9247 Z"/></g><defs></defs><g stroke-linejoin="miter" stroke-opacity="1.0" fill-opacity="0.0" opacity="0.5116560972597762" stroke="rgb(255,0,0)" stroke-width="6.0" fill="rgb(0,0,0)" stroke-linecap="butt" stroke-miterlimit="10.0"><path d="M 28.3216,211.7115 l -8.8573,3.1096 "/></g><defs></defs><g stroke-linejoin="miter" stroke-opacity="1.0" fill-opacity="1.0" opacity="0.7153014030880802" stroke="rgb(255,0,0)" stroke-width="0.0" fill="rgb(255,0,0)" stroke-linecap="butt" stroke-miterlimit="10.0"></g><defs></defs><g stroke-linejoin="miter" stroke-opacity="1.0" fill-opacity="1.0" opacity="0.5116560972597762" stroke="rgb(255,0,0)" stroke-width="0.0" fill="rgb(255,0,0)" stroke-linecap="butt" stroke-miterlimit="10.0"></g><defs></defs><g stroke-linejoin="miter" stroke-opacity="1.0" fill-opacity="1.0" opacity="0.7153014030880802" stroke="rgb(255,0,0)" stroke-width="0.0" fill="rgb(255,0,0)" stroke-linecap="butt" stroke-miterlimit="10.0"><path d="M 6.2548,219.4588 l 15.7487,-0.3698 l -4.0273,-3.7454 l 0.8022,-5.4409 Z"/></g><defs></defs><g stroke-linejoin="miter" stroke-opacity="1.0" fill-opacity="1.0" opacity="0.5116560972597762" stroke="rgb(255,0,0)" stroke-width="0.0" fill="rgb(255,0,0)" stroke-linecap="butt" stroke-miterlimit="10.0"><path d="M 17.9762,215.3436 l 1.4881,-0.5225 l 0.9938,2.8306 l -2.4819,-2.3082 l 1.4881,-0.5225 l -0.9938,-2.8306 Z"/></g><defs></defs><g stroke-linejoin="miter" stroke-opacity="1.0" fill-opacity="0.0" opacity="0.4814172219117235" stroke="rgb(255,0,0)" stroke-width="6.0" fill="rgb(0,0,0)" stroke-linecap="butt" stroke-miterlimit="10.0"><path d="M 48.1659,247.9657 l -13.1222,-23.9735 "/></g><defs></defs><g stroke-linejoin="miter" stroke-opacity="1.0" fill-opacity="1.0" opacity="0.6938423609954378" stroke="rgb(255,0,0)" stroke-width="0.0" fill="rgb(255,0,0)" stroke-linecap="butt" stroke-miterlimit="10.0"></g><defs></defs><g stroke-linejoin="miter" stroke-opacity="1.0" fill-opacity="1.0" opacity="0.4814172219117235" stroke="rgb(255,0,0)" stroke-width="0.0" fill="rgb(255,0,0)" stroke-linecap="butt" stroke-miterlimit="10.0"></g><defs></defs><g stroke-linejoin="miter" stroke-opacity="1.0" fill-opacity="1.0" opacity="0.6938423609954378" stroke="rgb(255,0,0)" stroke-width="0.0" fill="rgb(255,0,0)" stroke-linecap="butt" stroke-miterlimit="10.0"><path d="M 28.3216,211.7115 l 2.9234,15.4794 l 3.0413,-4.5823 l 5.4989,-0.0924 Z"/></g><defs></defs><g stroke-linejoin="miter" stroke-opacity="1.0" fill-opacity="1.0" opacity="0.4814172219117235" stroke="rgb(255,0,0)" stroke-width="0.0" fill="rgb(255,0,0)" stroke-linecap="butt" stroke-miterlimit="10.0"><path d="M 34.2864,222.6087 l 0.7573,1.3835 l -2.6316,1.4404 l 1.8743,-2.8239 l 0.7573,1.3835 l 2.6316,-1.4404 Z"/></g><defs></defs><g stroke-linejoin="miter" stroke-opacity="1.0" fill-opacity="0.0" opacity="0.45296546409674066" stroke="rgb(255,0,0)" stroke-width="6.0" fill="rgb(0,0,0)" stroke-linecap="butt" stroke-miterlimit="10.0"><path d="M 4.3144,235.8958 l 30.3534,8.3546 "/></g><defs></defs><g stroke-linejoin="miter" stroke-opacity="1.0" fill-opacity="1.0" opacity="0.6730270901655747" stroke="rgb(255,0,0)" stroke-width="0.0" fill="rgb(255,0,0)" stroke-linecap="butt" stroke-miterlimit="10.0"></g><defs></defs><g stroke-linejoin="miter" stroke-opacity="1.0" fill-opacity="1.0" opacity="0.45296546409674066" stroke="rgb(255,0,0)" stroke-width="0.0" fill="rgb(255,0,0)" stroke-linecap="butt" stroke-miterlimit="10.0"></g><defs></defs><g stroke-linejoin="miter" stroke-opacity="1.0" fill-opacity="1.0" opacity="0.6730270901655747" stroke="rgb(255,0,0)" stroke-width="0.0" fill="rgb(255,0,0)" stroke-linecap="butt" stroke-miterlimit="10.0"><path d="M 48.1659,247.9657 l -13.1530,-8.6693 l 1.1756,5.3726 l -3.7593,4.0143 Z"/></g><defs></defs><g stroke-linejoin="miter" stroke-opacity="1.0" fill-opacity="1.0" opacity="0.45296546409674066" stroke="rgb(255,0,0)" stroke-width="0.0" fill="rgb(255,0,0)" stroke-linecap="butt" stroke-miterlimit="10.0"><path d="M 36.1885,244.6690 l -1.5206,-0.4185 l 0.7961,-2.8924 l 0.7245,3.3110 l -1.5206,-0.4185 l -0.7961,2.8924 Z"/></g><defs></defs><g stroke-linejoin="miter" stroke-opacity="1.0" fill-opacity="0.0" opacity="0.42619520516862325" stroke="rgb(255,0,0)" stroke-width="6.0" fill="rgb(0,0,0)" stroke-linecap="butt" stroke-miterlimit="10.0"><path d="M 4.2311,235.9310 l -12.8165,5.4048 "/></g><defs></defs><g stroke-linejoin="miter" stroke-opacity="1.0" fill-opacity="1.0" opacity="0.6528362774606075" stroke="rgb(255,0,0)" stroke-width="0.0" fill="rgb(255,0,0)" stroke-linecap="butt" stroke-miterlimit="10.0"></g><defs></defs><g stroke-linejoin="miter" stroke-opacity="1.0" fill-opacity="1.0" opacity="0.42619520516862325" stroke="rgb(255,0,0)" stroke-width="0.0" fill="rgb(255,0,0)" stroke-linecap="butt" stroke-miterlimit="10.0"></g><defs></defs><g stroke-linejoin="miter" stroke-opacity="1.0" fill-opacity="1.0" opacity="0.6528362774606075" stroke="rgb(255,0,0)" stroke-width="0.0" fill="rgb(255,0,0)" stroke-linecap="butt" stroke-miterlimit="10.0"><path d="M 4.3144,235.8958 l -15.6963,1.3361 l 4.2497,3.4910 l -0.4666,5.4799 Z"/></g><defs></defs><g stroke-linejoin="miter" stroke-opacity="1.0" fill-opacity="1.0" opacity="0.42619520516862325" stroke="rgb(255,0,0)" stroke-width="0.0" fill="rgb(255,0,0)" stroke-linecap="butt" stroke-miterlimit="10.0"><path d="M -7.1322,240.7230 l -1.4533,0.6128 l -1.1657,-2.7643 l 2.6190,2.1514 l -1.4533,0.6128 l 1.1657,2.7643 Z"/></g><defs></defs><g stroke-linejoin="miter" stroke-opacity="1.0" fill-opacity="0.0" opacity="0.4010070685431576" stroke="rgb(255,0,0)" stroke-width="6.0" fill="rgb(0,0,0)" stroke-linecap="butt" stroke-miterlimit="10.0"><path d="M 4.6554,235.9457 l 13.5672,0.4711 "/></g><defs></defs><g stroke-linejoin="miter" stroke-opacity="1.0" fill-opacity="1.0" opacity="0.6332511891367892" stroke="rgb(255,0,0)" stroke-width="0.0" fill="rgb(255,0,0)" stroke-linecap="butt" stroke-miterlimit="10.0"></g><defs></defs><g stroke-linejoin="miter" stroke-opacity="1.0" fill-opacity="1.0" opacity="0.4010070685431576" stroke="rgb(255,0,0)" stroke-width="0.0" fill="rgb(255,0,0)" stroke-linecap="butt" stroke-miterlimit="10.0"></g><defs></defs><g stroke-linejoin="miter" stroke-opacity="1.0" fill-opacity="1.0" opacity="0.6332511891367892" stroke="rgb(255,0,0)" stroke-width="0.0" fill="rgb(255,0,0)" stroke-linecap="butt" stroke-miterlimit="10.0"><path d="M 4.2311,235.9310 l 14.8041,5.3850 l -2.3887,-4.9539 l 2.7266,-4.7762 Z"/></g><defs></defs><g stroke-linejoin="miter" stroke-opacity="1.0" fill-opacity="1.0" opacity="0.4010070685431576" stroke="rgb(255,0,0)" stroke-width="0.0" fill="rgb(255,0,0)" stroke-linecap="butt" stroke-miterlimit="10.0"><path d="M 16.6464,236.3622 l 1.5762,0.0547 l -0.1041,2.9982 l -1.4721,-3.0529 l 1.5762,0.0547 l 0.1041,-2.9982 Z"/></g><defs></defs><g stroke-linejoin="miter" stroke-opacity="1.0" fill-opacity="0.0" opacity="0.37730755079225703" stroke="rgb(255,0,0)" stroke-width="6.0" fill="rgb(0,0,0)" stroke-linecap="butt" stroke-miterlimit="10.0"><path d="M 3.7682,237.8586 l -5.0033,10.7877 "/></g><defs></defs><g stroke-linejoin="miter" stroke-opacity="1.0" fill-opacity="1.0" opacity="0.6142536534626856" stroke="rgb(255,0,0)" stroke-width="0.0" fill="rgb(255,0,0)" stroke-linecap="butt" stroke-miterlimit="10.0"></g><defs></defs><g stroke-linejoin="miter" stroke-opacity="1.0" fill-opacity="1.0" opacity="0.37730755079225703" stroke="rgb(255,0,0)" stroke-width="0.0" fill="rgb(255,0,0)" stroke-linecap="butt" stroke-miterlimit="10.0"></g><defs></defs><g stroke-linejoin="miter" stroke-opacity="1.0" fill-opacity="1.0" opacity="0.6142536534626856" stroke="rgb(255,0,0)" stroke-width="0.0" fill="rgb(255,0,0)" stroke-linecap="butt" stroke-miterlimit="10.0"><path d="M 4.6554,235.9457 l -10.7198,11.5432 l 5.4929,-0.2735 l 3.3393,4.3699 Z"/></g><defs></defs><g stroke-linejoin="miter" stroke-opacity="1.0" fill-opacity="1.0" opacity="0.37730755079225703" stroke="rgb(255,0,0)" stroke-width="0.0" fill="rgb(255,0,0)" stroke-linecap="butt" stroke-miterlimit="10.0"><path d="M -0.5715,247.2154 l -0.6636,1.4308 l -2.7215,-1.2622 l 3.3851,-0.1686 l -0.6636,1.4308 l 2.7215,1.2622 Z"/></g><defs></defs><g stroke-linejoin="miter" stroke-opacity="1.0" fill-opacity="0.0" opacity="0.3550086745404346" stroke="rgb(255,0,0)" stroke-width="6.0" fill="rgb(0,0,0)" stroke-linecap="butt" stroke-miterlimit="10.0"><path d="M 9.0765,236.5928 l 8.3099,-1.9816 "/></g><defs></defs><g stroke-linejoin="miter" stroke-opacity="1.0" fill-opacity="1.0" opacity="0.595826043858805" stroke="rgb(255,0,0)" stroke-width="0.0" fill="rgb(255,0,0)" stroke-linecap="butt" stroke-miterlimit="10.0"></g><defs></defs><g stroke-linejoin="miter" stroke-opacity="1.0" fill-opacity="1.0" opacity="0.3550086745404346" stroke="rgb(255,0,0)" stroke-width="0.0" fill="rgb(255,0,0)" stroke-linecap="butt" stroke-miterlimit="10.0"></g><defs></defs><g stroke-linejoin="miter" stroke-opacity="1.0" fill-opacity="1.0" opacity="0.595826043858805" stroke="rgb(255,0,0)" stroke-width="0.0" fill="rgb(255,0,0)" stroke-linecap="butt" stroke-miterlimit="10.0"><path d="M 3.7682,237.8586 l 15.7026,1.2600 l -3.6186,-4.1416 l 1.3603,-5.3288 Z"/></g><defs></defs><g stroke-linejoin="miter" stroke-opacity="1.0" fill-opacity="1.0" opacity="0.3550086745404346" stroke="rgb(255,0,0)" stroke-width="0.0" fill="rgb(255,0,0)" stroke-linecap="butt" stroke-miterlimit="10.0"><path d="M 15.8522,234.9770 l 1.5342,-0.3658 l 0.6959,2.9182 l -2.2300,-2.5523 l 1.5342,-0.3658 l -0.6959,-2.9182 Z"/></g><defs></defs><g stroke-linejoin="miter" stroke-opacity="1.0" fill-opacity="0.0" opacity="0.3340276618750949" stroke="rgb(255,0,0)" stroke-width="6.0" fill="rgb(0,0,0)" stroke-linecap="butt" stroke-miterlimit="10.0"><path d="M 27.4285,249.8337 l -6.9986,-5.0495 "/></g><defs></defs><g stroke-linejoin="miter" stroke-opacity="1.0" fill-opacity="1.0" opacity="0.5779512625430409" stroke="rgb(255,0,0)" stroke-width="0.0" fill="rgb(255,0,0)" stroke-linecap="butt" stroke-miterlimit="10.0"></g><defs></defs><g stroke-linejoin="miter" stroke-opacity="1.0" fill-opacity="1.0" opacity="0.3340276618750949" stroke="rgb(255,0,0)" stroke-width="0.0" fill="rgb(255,0,0)" stroke-linecap="butt" stroke-miterlimit="10.0"></g><defs></defs><g stroke-linejoin="miter" stroke-opacity="1.0" fill-opacity="1.0" opacity="0.5779512625430409" stroke="rgb(255,0,0)" stroke-width="0.0" fill="rgb(255,0,0)" stroke-linecap="butt" stroke-miterlimit="10.0"><path d="M 9.0765,236.5928 l 9.3015,12.7138 l 0.7728,-5.4451 l 4.9237,-2.4503 Z"/></g><defs></defs><g stroke-linejoin="miter" stroke-opacity="1.0" fill-opacity="1.0" opacity="0.3340276618750949" stroke="rgb(255,0,0)" stroke-width="0.0" fill="rgb(255,0,0)" stroke-linecap="butt" stroke-miterlimit="10.0"><path d="M 19.1509,243.8614 l 1.2790,0.9228 l -1.7553,2.4329 l 0.4763,-3.3557 l 1.2790,0.9228 l 1.7553,-2.4329 Z"/></g><defs></defs><g stroke-linejoin="miter" stroke-opacity="1.0" fill-opacity="0.0" opacity="0.3142866270582768" stroke="rgb(255,0,0)" stroke-width="6.0" fill="rgb(0,0,0)" stroke-linecap="butt" stroke-miterlimit="10.0"><path d="M 26.8383,239.1921 l -0.1851,-3.3369 "/></g><defs></defs><g stroke-linejoin="miter" stroke-opacity="1.0" fill-opacity="1.0" opacity="0.5606127246667496" stroke="rgb(255,0,0)" stroke-width="0.0" fill="rgb(255,0,0)" stroke-linecap="butt" stroke-miterlimit="10.0"></g><defs></defs><g stroke-linejoin="miter" stroke-opacity="1.0" fill-opacity="1.0" opacity="0.3142866270582768" stroke="rgb(255,0,0)" stroke-width="0.0" fill="rgb(255,0,0)" stroke-linecap="butt" stroke-miterlimit="10.0"></g><defs></defs><g stroke-linejoin="miter" stroke-opacity="1.0" fill-opacity="1.0" opacity="0.5606127246667496" stroke="rgb(255,0,0)" stroke-width="0.0" fill="rgb(255,0,0)" stroke-linecap="butt" stroke-miterlimit="10.0"><path d="M 27.4285,249.8337 l 4.0308,-15.2286 l -4.7188,2.8249 l -5.0022,-2.2857 Z"/></g><defs></defs><g stroke-linejoin="miter" stroke-opacity="1.0" fill-opacity="1.0" opacity="0.3142866270582768" stroke="rgb(255,0,0)" stroke-width="0.0" fill="rgb(255,0,0)" stroke-linecap="butt" stroke-miterlimit="10.0"><path d="M 26.7406,237.4300 l -0.0873,-1.5748 l 2.9954,-0.1661 l -2.9081,1.7409 l -0.0873,-1.5748 l -2.9954,0.1661 Z"/></g></svg>