G75*
G70*
%OFA0B0*%
%FSLAX25Y25*%
%IPPOS*%
%LPD*%
%AMOC8*
5,1,8,0,0,1.08239X$1,22.5*
%
%ADD101R,0.03600X0.02600*%
%ADD116R,0.08000X0.08000*%
%ADD180C,0.08200*%
%ADD20OC8,0.04760*%
%ADD227R,0.08200X0.08200*%
%ADD234C,0.04500*%
%ADD25C,0.16350*%
%ADD290C,0.08000*%
%ADD339OC8,0.05320*%
%ADD540C,0.04360*%
%ADD679C,0.00800*%
X0010000Y0010000D02*
G75*
%LPD*%
D25*
X0092680Y0155660D03*
X0021810Y0021810D03*
D290*
X0017000Y0160540D03*
X0028400Y0160540D03*
D227*
X0027220Y0149910D03*
D180*
X0017220Y0149910D03*
D20*
X0062760Y0135980D03*
X0070630Y0135980D03*
X0070630Y0128110D03*
X0062760Y0128110D03*
X0098980Y0125740D03*
D339*
X0044650Y0101330D03*
X0036770Y0101330D03*
X0064330Y0051730D03*
X0064330Y0043850D03*
X0010000Y0177480D02*
G75*
%LPD*%
D25*
X0116300Y0189290D03*
X0021810Y0189290D03*
X0021810Y0401890D03*
X0116300Y0401890D03*
D290*
X0069110Y0341590D03*
X0068110Y0331590D03*
X0069110Y0321590D03*
X0097110Y0250090D03*
X0107110Y0249090D03*
X0087110Y0249090D03*
X0040750Y0228220D03*
X0040750Y0216820D03*
D227*
X0040830Y0196190D03*
D180*
X0040830Y0206190D03*
D116*
X0077110Y0250090D03*
X0068110Y0311590D03*
D679*
X0029610Y0311090D02*
X0029610Y0308090D01*
X0029610Y0305090D01*
X0029570Y0304760D01*
X0029460Y0304440D01*
X0029280Y0304150D01*
X0029050Y0303920D01*
X0028760Y0303740D01*
X0028440Y0303630D01*
X0028110Y0303590D01*
X0027780Y0303630D01*
X0027460Y0303740D01*
X0027170Y0303920D01*
X0026940Y0304150D01*
X0026760Y0304440D01*
X0026650Y0304760D01*
X0026610Y0305090D01*
X0026610Y0308090D01*
X0029610Y0308090D01*
X0026610Y0308090D01*
X0026610Y0311090D01*
X0026650Y0311420D01*
X0026760Y0311740D01*
X0026940Y0312030D01*
X0027170Y0312260D01*
X0027460Y0312440D01*
X0027780Y0312550D01*
X0028110Y0312590D01*
X0028440Y0312550D01*
X0028760Y0312440D01*
X0029050Y0312260D01*
X0029280Y0312030D01*
X0029460Y0311740D01*
X0029570Y0311420D01*
X0029610Y0311090D01*
X0029200Y0312110D02*
X0029200Y0308090D01*
X0029200Y0304070D01*
X0028410Y0303620D02*
X0028410Y0308090D01*
X0028410Y0312560D01*
X0027630Y0312500D02*
X0027630Y0308090D01*
X0027630Y0303680D01*
X0026840Y0304300D02*
X0026840Y0308090D01*
X0026840Y0311880D01*
D101*
X0028110Y0308090D03*
D540*
X0032110Y0251090D03*
X0056310Y0225590D03*
D234*
X0023110Y0296090D03*
X0040030Y0325120D03*
X0047400Y0325120D03*
X0061610Y0384590D03*
X0058110Y0409090D03*
X0138110Y0010000D02*
G75*
%LPD*%
D25*
X0220790Y0155660D03*
X0149920Y0021810D03*
D290*
X0145110Y0160540D03*
X0156510Y0160540D03*
D227*
X0155330Y0149910D03*
D180*
X0145330Y0149910D03*
D20*
X0190870Y0135980D03*
X0198740Y0135980D03*
X0198740Y0128110D03*
X0190870Y0128110D03*
X0227090Y0125740D03*
D339*
X0172760Y0101330D03*
X0164880Y0101330D03*
X0192440Y0051730D03*
X0192440Y0043850D03*
X0138110Y0177480D02*
G75*
%LPD*%
D25*
X0244410Y0189290D03*
X0149920Y0189290D03*
X0149920Y0401890D03*
X0244410Y0401890D03*
D290*
X0197220Y0341590D03*
X0196220Y0331590D03*
X0197220Y0321590D03*
X0225220Y0250090D03*
X0235220Y0249090D03*
X0215220Y0249090D03*
X0168860Y0228220D03*
X0168860Y0216820D03*
D227*
X0168940Y0196190D03*
D180*
X0168940Y0206190D03*
D116*
X0205220Y0250090D03*
X0196220Y0311590D03*
D679*
X0157720Y0311090D02*
X0157720Y0308090D01*
X0157720Y0305090D01*
X0157680Y0304760D01*
X0157570Y0304440D01*
X0157390Y0304150D01*
X0157160Y0303920D01*
X0156870Y0303740D01*
X0156550Y0303630D01*
X0156220Y0303590D01*
X0155890Y0303630D01*
X0155570Y0303740D01*
X0155280Y0303920D01*
X0155050Y0304150D01*
X0154870Y0304440D01*
X0154760Y0304760D01*
X0154720Y0305090D01*
X0154720Y0308090D01*
X0157720Y0308090D01*
X0154720Y0308090D01*
X0154720Y0311090D01*
X0154760Y0311420D01*
X0154870Y0311740D01*
X0155050Y0312030D01*
X0155280Y0312260D01*
X0155570Y0312440D01*
X0155890Y0312550D01*
X0156220Y0312590D01*
X0156550Y0312550D01*
X0156870Y0312440D01*
X0157160Y0312260D01*
X0157390Y0312030D01*
X0157570Y0311740D01*
X0157680Y0311420D01*
X0157720Y0311090D01*
X0157310Y0312110D02*
X0157310Y0308090D01*
X0157310Y0304070D01*
X0156520Y0303620D02*
X0156520Y0308090D01*
X0156520Y0312560D01*
X0155740Y0312500D02*
X0155740Y0308090D01*
X0155740Y0303680D01*
X0154950Y0304300D02*
X0154950Y0308090D01*
X0154950Y0311880D01*
D101*
X0156220Y0308090D03*
D540*
X0160220Y0251090D03*
X0184420Y0225590D03*
D234*
X0151220Y0296090D03*
X0168140Y0325120D03*
X0175510Y0325120D03*
X0189720Y0384590D03*
X0186220Y0409090D03*
%ADD10C,0.00100*%
D10*
X0010000Y0010000D02*
X0010000Y0413700D01*
X0256220Y0413700D01*
X0256220Y0010000D01*
X0010000Y0010000D01*
M02*
