G75*
G70*
%OFA0B0*%
%FSLAX25Y25*%
%IPPOS*%
%LPD*%
%AMOC8*
5,1,8,0,0,1.08239X$1,22.5*
%
%ADD679C,0.00800*%
X0010000Y0010000D02*
G75*
%LPD*%
D679*
X0104490Y0167480D02*
X0104490Y0010000D01*
X0010000Y0010000D01*
X0010000Y0167480D01*
X0104490Y0167480D01*
X0100550Y0155660D02*
X0100530Y0155100D01*
X0100470Y0154550D01*
X0100370Y0154010D01*
X0100240Y0153470D01*
X0100060Y0152940D01*
X0099850Y0152430D01*
X0099610Y0151930D01*
X0099330Y0151450D01*
X0099010Y0150990D01*
X0098670Y0150550D01*
X0098290Y0150140D01*
X0097890Y0149760D01*
X0097460Y0149410D01*
X0097010Y0149090D01*
X0096530Y0148800D01*
X0096040Y0148540D01*
X0095530Y0148320D01*
X0095010Y0148140D01*
X0094470Y0148000D01*
X0093920Y0147890D01*
X0093370Y0147820D01*
X0092820Y0147790D01*
X0092260Y0147800D01*
X0091710Y0147850D01*
X0091160Y0147940D01*
X0090620Y0148060D01*
X0090090Y0148230D01*
X0089570Y0148430D01*
X0089070Y0148670D01*
X0088590Y0148940D01*
X0088120Y0149240D01*
X0087680Y0149580D01*
X0087260Y0149950D01*
X0086880Y0150350D01*
X0086510Y0150770D01*
X0086180Y0151220D01*
X0085890Y0151680D01*
X0085620Y0152170D01*
X0085400Y0152680D01*
X0085200Y0153200D01*
X0085050Y0153740D01*
X0084930Y0154280D01*
X0084850Y0154830D01*
X0084810Y0155380D01*
X0084810Y0155940D01*
X0084850Y0156490D01*
X0084930Y0157040D01*
X0085050Y0157580D01*
X0085200Y0158120D01*
X0085400Y0158640D01*
X0085620Y0159150D01*
X0085890Y0159640D01*
X0086180Y0160100D01*
X0086510Y0160550D01*
X0086880Y0160970D01*
X0087260Y0161370D01*
X0087680Y0161740D01*
X0088120Y0162080D01*
X0088590Y0162380D01*
X0089070Y0162650D01*
X0089570Y0162890D01*
X0090090Y0163090D01*
X0090620Y0163260D01*
X0091160Y0163380D01*
X0091710Y0163470D01*
X0092260Y0163520D01*
X0092820Y0163530D01*
X0093370Y0163500D01*
X0093920Y0163430D01*
X0094470Y0163320D01*
X0095010Y0163180D01*
X0095530Y0163000D01*
X0096040Y0162780D01*
X0096530Y0162520D01*
X0097010Y0162230D01*
X0097460Y0161910D01*
X0097890Y0161560D01*
X0098290Y0161180D01*
X0098670Y0160770D01*
X0099010Y0160330D01*
X0099330Y0159870D01*
X0099610Y0159390D01*
X0099850Y0158890D01*
X0100060Y0158380D01*
X0100240Y0157850D01*
X0100370Y0157310D01*
X0100470Y0156770D01*
X0100530Y0156220D01*
X0100550Y0155660D01*
X0029680Y0021810D02*
X0029660Y0021250D01*
X0029600Y0020700D01*
X0029500Y0020160D01*
X0029370Y0019620D01*
X0029190Y0019090D01*
X0028980Y0018580D01*
X0028740Y0018080D01*
X0028460Y0017600D01*
X0028140Y0017140D01*
X0027800Y0016700D01*
X0027420Y0016290D01*
X0027020Y0015910D01*
X0026590Y0015560D01*
X0026140Y0015240D01*
X0025660Y0014950D01*
X0025170Y0014690D01*
X0024660Y0014470D01*
X0024140Y0014290D01*
X0023600Y0014150D01*
X0023050Y0014040D01*
X0022500Y0013970D01*
X0021950Y0013940D01*
X0021390Y0013950D01*
X0020840Y0014000D01*
X0020290Y0014090D01*
X0019750Y0014210D01*
X0019220Y0014380D01*
X0018700Y0014580D01*
X0018200Y0014820D01*
X0017720Y0015090D01*
X0017250Y0015390D01*
X0016810Y0015730D01*
X0016390Y0016100D01*
X0016010Y0016500D01*
X0015640Y0016920D01*
X0015310Y0017370D01*
X0015020Y0017830D01*
X0014750Y0018320D01*
X0014530Y0018830D01*
X0014330Y0019350D01*
X0014180Y0019890D01*
X0014060Y0020430D01*
X0013980Y0020980D01*
X0013940Y0021530D01*
X0013940Y0022090D01*
X0013980Y0022640D01*
X0014060Y0023190D01*
X0014180Y0023730D01*
X0014330Y0024270D01*
X0014530Y0024790D01*
X0014750Y0025300D01*
X0015020Y0025790D01*
X0015310Y0026250D01*
X0015640Y0026700D01*
X0016010Y0027120D01*
X0016390Y0027520D01*
X0016810Y0027890D01*
X0017250Y0028230D01*
X0017720Y0028530D01*
X0018200Y0028800D01*
X0018700Y0029040D01*
X0019220Y0029240D01*
X0019750Y0029410D01*
X0020290Y0029530D01*
X0020840Y0029620D01*
X0021390Y0029670D01*
X0021950Y0029680D01*
X0022500Y0029650D01*
X0023050Y0029580D01*
X0023600Y0029470D01*
X0024140Y0029330D01*
X0024660Y0029150D01*
X0025170Y0028930D01*
X0025660Y0028670D01*
X0026140Y0028380D01*
X0026590Y0028060D01*
X0027020Y0027710D01*
X0027420Y0027330D01*
X0027800Y0026920D01*
X0028140Y0026480D01*
X0028460Y0026020D01*
X0028740Y0025540D01*
X0028980Y0025040D01*
X0029190Y0024530D01*
X0029370Y0024000D01*
X0029500Y0023460D01*
X0029600Y0022920D01*
X0029660Y0022370D01*
X0029680Y0021810D01*
D679*
X0027350Y0142710D02*
X0028080Y0143440D01*
X0028080Y0144180D01*
X0027350Y0144910D01*
X0026600Y0143810D02*
X0025140Y0143810D01*
X0024400Y0142710D02*
X0023660Y0143440D01*
X0023660Y0144180D01*
X0024400Y0144910D01*
X0018680Y0144280D02*
X0017950Y0145010D01*
X0018680Y0144280D02*
X0018680Y0143540D01*
X0017950Y0142810D01*
X0017200Y0143910D02*
X0015740Y0143910D01*
X0016470Y0143180D02*
X0016470Y0144640D01*
X0015000Y0145010D02*
X0014260Y0144280D01*
X0014260Y0143540D01*
X0015000Y0142810D01*
D679*
X0010400Y0010400D02*
X0010400Y0167880D01*
X0010400Y0167880D02*
X0104890Y0167880D01*
X0104890Y0010400D01*
X0010400Y0010400D01*
X0010000Y0177480D02*
G75*
%LPD*%
D679*
X0128110Y0177480D02*
X0010000Y0177480D01*
X0010000Y0413700D01*
X0128110Y0413700D01*
X0128110Y0177480D01*
X0116300Y0181420D02*
X0115740Y0181440D01*
X0115190Y0181500D01*
X0114650Y0181600D01*
X0114110Y0181730D01*
X0113580Y0181910D01*
X0113070Y0182120D01*
X0112570Y0182360D01*
X0112090Y0182640D01*
X0111630Y0182960D01*
X0111190Y0183300D01*
X0110780Y0183680D01*
X0110400Y0184080D01*
X0110050Y0184510D01*
X0109730Y0184960D01*
X0109440Y0185440D01*
X0109180Y0185930D01*
X0108960Y0186440D01*
X0108780Y0186960D01*
X0108640Y0187500D01*
X0108530Y0188050D01*
X0108460Y0188600D01*
X0108430Y0189150D01*
X0108440Y0189710D01*
X0108490Y0190260D01*
X0108580Y0190810D01*
X0108700Y0191350D01*
X0108870Y0191880D01*
X0109070Y0192400D01*
X0109310Y0192900D01*
X0109580Y0193380D01*
X0109880Y0193850D01*
X0110220Y0194290D01*
X0110590Y0194710D01*
X0110990Y0195090D01*
X0111410Y0195460D01*
X0111860Y0195790D01*
X0112320Y0196080D01*
X0112810Y0196350D01*
X0113320Y0196570D01*
X0113840Y0196770D01*
X0114380Y0196920D01*
X0114920Y0197040D01*
X0115470Y0197120D01*
X0116020Y0197160D01*
X0116580Y0197160D01*
X0117130Y0197120D01*
X0117680Y0197040D01*
X0118220Y0196920D01*
X0118760Y0196770D01*
X0119280Y0196570D01*
X0119790Y0196350D01*
X0120280Y0196080D01*
X0120740Y0195790D01*
X0121190Y0195460D01*
X0121610Y0195090D01*
X0122010Y0194710D01*
X0122380Y0194290D01*
X0122720Y0193850D01*
X0123020Y0193380D01*
X0123290Y0192900D01*
X0123530Y0192400D01*
X0123730Y0191880D01*
X0123900Y0191350D01*
X0124020Y0190810D01*
X0124110Y0190260D01*
X0124160Y0189710D01*
X0124170Y0189150D01*
X0124140Y0188600D01*
X0124070Y0188050D01*
X0123960Y0187500D01*
X0123820Y0186960D01*
X0123640Y0186440D01*
X0123420Y0185930D01*
X0123160Y0185440D01*
X0122870Y0184960D01*
X0122550Y0184510D01*
X0122200Y0184080D01*
X0121820Y0183680D01*
X0121410Y0183300D01*
X0120970Y0182960D01*
X0120510Y0182640D01*
X0120030Y0182360D01*
X0119530Y0182120D01*
X0119020Y0181910D01*
X0118490Y0181730D01*
X0117950Y0181600D01*
X0117410Y0181500D01*
X0116860Y0181440D01*
X0116300Y0181420D01*
X0021810Y0181420D02*
X0021250Y0181440D01*
X0020700Y0181500D01*
X0020160Y0181600D01*
X0019620Y0181730D01*
X0019090Y0181910D01*
X0018580Y0182120D01*
X0018080Y0182360D01*
X0017600Y0182640D01*
X0017140Y0182960D01*
X0016700Y0183300D01*
X0016290Y0183680D01*
X0015910Y0184080D01*
X0015560Y0184510D01*
X0015240Y0184960D01*
X0014950Y0185440D01*
X0014690Y0185930D01*
X0014470Y0186440D01*
X0014290Y0186960D01*
X0014150Y0187500D01*
X0014040Y0188050D01*
X0013970Y0188600D01*
X0013940Y0189150D01*
X0013950Y0189710D01*
X0014000Y0190260D01*
X0014090Y0190810D01*
X0014210Y0191350D01*
X0014380Y0191880D01*
X0014580Y0192400D01*
X0014820Y0192900D01*
X0015090Y0193380D01*
X0015390Y0193850D01*
X0015730Y0194290D01*
X0016100Y0194710D01*
X0016500Y0195090D01*
X0016920Y0195460D01*
X0017370Y0195790D01*
X0017830Y0196080D01*
X0018320Y0196350D01*
X0018830Y0196570D01*
X0019350Y0196770D01*
X0019890Y0196920D01*
X0020430Y0197040D01*
X0020980Y0197120D01*
X0021530Y0197160D01*
X0022090Y0197160D01*
X0022640Y0197120D01*
X0023190Y0197040D01*
X0023730Y0196920D01*
X0024270Y0196770D01*
X0024790Y0196570D01*
X0025300Y0196350D01*
X0025790Y0196080D01*
X0026250Y0195790D01*
X0026700Y0195460D01*
X0027120Y0195090D01*
X0027520Y0194710D01*
X0027890Y0194290D01*
X0028230Y0193850D01*
X0028530Y0193380D01*
X0028800Y0192900D01*
X0029040Y0192400D01*
X0029240Y0191880D01*
X0029410Y0191350D01*
X0029530Y0190810D01*
X0029620Y0190260D01*
X0029670Y0189710D01*
X0029680Y0189150D01*
X0029650Y0188600D01*
X0029580Y0188050D01*
X0029470Y0187500D01*
X0029330Y0186960D01*
X0029150Y0186440D01*
X0028930Y0185930D01*
X0028670Y0185440D01*
X0028380Y0184960D01*
X0028060Y0184510D01*
X0027710Y0184080D01*
X0027330Y0183680D01*
X0026920Y0183300D01*
X0026480Y0182960D01*
X0026020Y0182640D01*
X0025540Y0182360D01*
X0025040Y0182120D01*
X0024530Y0181910D01*
X0024000Y0181730D01*
X0023460Y0181600D01*
X0022920Y0181500D01*
X0022370Y0181440D01*
X0021810Y0181420D01*
X0021810Y0394020D02*
X0021250Y0394040D01*
X0020700Y0394100D01*
X0020160Y0394200D01*
X0019620Y0394330D01*
X0019090Y0394510D01*
X0018580Y0394720D01*
X0018080Y0394960D01*
X0017600Y0395240D01*
X0017140Y0395560D01*
X0016700Y0395900D01*
X0016290Y0396280D01*
X0015910Y0396680D01*
X0015560Y0397110D01*
X0015240Y0397560D01*
X0014950Y0398040D01*
X0014690Y0398530D01*
X0014470Y0399040D01*
X0014290Y0399560D01*
X0014150Y0400100D01*
X0014040Y0400650D01*
X0013970Y0401200D01*
X0013940Y0401750D01*
X0013950Y0402310D01*
X0014000Y0402860D01*
X0014090Y0403410D01*
X0014210Y0403950D01*
X0014380Y0404480D01*
X0014580Y0405000D01*
X0014820Y0405500D01*
X0015090Y0405980D01*
X0015390Y0406450D01*
X0015730Y0406890D01*
X0016100Y0407310D01*
X0016500Y0407690D01*
X0016920Y0408060D01*
X0017370Y0408390D01*
X0017830Y0408680D01*
X0018320Y0408950D01*
X0018830Y0409170D01*
X0019350Y0409370D01*
X0019890Y0409520D01*
X0020430Y0409640D01*
X0020980Y0409720D01*
X0021530Y0409760D01*
X0022090Y0409760D01*
X0022640Y0409720D01*
X0023190Y0409640D01*
X0023730Y0409520D01*
X0024270Y0409370D01*
X0024790Y0409170D01*
X0025300Y0408950D01*
X0025790Y0408680D01*
X0026250Y0408390D01*
X0026700Y0408060D01*
X0027120Y0407690D01*
X0027520Y0407310D01*
X0027890Y0406890D01*
X0028230Y0406450D01*
X0028530Y0405980D01*
X0028800Y0405500D01*
X0029040Y0405000D01*
X0029240Y0404480D01*
X0029410Y0403950D01*
X0029530Y0403410D01*
X0029620Y0402860D01*
X0029670Y0402310D01*
X0029680Y0401750D01*
X0029650Y0401200D01*
X0029580Y0400650D01*
X0029470Y0400100D01*
X0029330Y0399560D01*
X0029150Y0399040D01*
X0028930Y0398530D01*
X0028670Y0398040D01*
X0028380Y0397560D01*
X0028060Y0397110D01*
X0027710Y0396680D01*
X0027330Y0396280D01*
X0026920Y0395900D01*
X0026480Y0395560D01*
X0026020Y0395240D01*
X0025540Y0394960D01*
X0025040Y0394720D01*
X0024530Y0394510D01*
X0024000Y0394330D01*
X0023460Y0394200D01*
X0022920Y0394100D01*
X0022370Y0394040D01*
X0021810Y0394020D01*
X0116300Y0394020D02*
X0115740Y0394040D01*
X0115190Y0394100D01*
X0114650Y0394200D01*
X0114110Y0394330D01*
X0113580Y0394510D01*
X0113070Y0394720D01*
X0112570Y0394960D01*
X0112090Y0395240D01*
X0111630Y0395560D01*
X0111190Y0395900D01*
X0110780Y0396280D01*
X0110400Y0396680D01*
X0110050Y0397110D01*
X0109730Y0397560D01*
X0109440Y0398040D01*
X0109180Y0398530D01*
X0108960Y0399040D01*
X0108780Y0399560D01*
X0108640Y0400100D01*
X0108530Y0400650D01*
X0108460Y0401200D01*
X0108430Y0401750D01*
X0108440Y0402310D01*
X0108490Y0402860D01*
X0108580Y0403410D01*
X0108700Y0403950D01*
X0108870Y0404480D01*
X0109070Y0405000D01*
X0109310Y0405500D01*
X0109580Y0405980D01*
X0109880Y0406450D01*
X0110220Y0406890D01*
X0110590Y0407310D01*
X0110990Y0407690D01*
X0111410Y0408060D01*
X0111860Y0408390D01*
X0112320Y0408680D01*
X0112810Y0408950D01*
X0113320Y0409170D01*
X0113840Y0409370D01*
X0114380Y0409520D01*
X0114920Y0409640D01*
X0115470Y0409720D01*
X0116020Y0409760D01*
X0116580Y0409760D01*
X0117130Y0409720D01*
X0117680Y0409640D01*
X0118220Y0409520D01*
X0118760Y0409370D01*
X0119280Y0409170D01*
X0119790Y0408950D01*
X0120280Y0408680D01*
X0120740Y0408390D01*
X0121190Y0408060D01*
X0121610Y0407690D01*
X0122010Y0407310D01*
X0122380Y0406890D01*
X0122720Y0406450D01*
X0123020Y0405980D01*
X0123290Y0405500D01*
X0123530Y0405000D01*
X0123730Y0404480D01*
X0123900Y0403950D01*
X0124020Y0403410D01*
X0124110Y0402860D01*
X0124160Y0402310D01*
X0124170Y0401750D01*
X0124140Y0401200D01*
X0124070Y0400650D01*
X0123960Y0400100D01*
X0123820Y0399560D01*
X0123640Y0399040D01*
X0123420Y0398530D01*
X0123160Y0398040D01*
X0122870Y0397560D01*
X0122550Y0397110D01*
X0122200Y0396680D01*
X0121820Y0396280D01*
X0121410Y0395900D01*
X0120970Y0395560D01*
X0120510Y0395240D01*
X0120030Y0394960D01*
X0119530Y0394720D01*
X0119020Y0394510D01*
X0118490Y0394330D01*
X0117950Y0394200D01*
X0117410Y0394100D01*
X0116860Y0394040D01*
X0116300Y0394020D01*
D679*
X0035200Y0209150D02*
X0035930Y0208410D01*
X0035200Y0209150D02*
X0034470Y0209150D01*
X0033730Y0208410D01*
X0034830Y0207670D02*
X0034830Y0206210D01*
X0034100Y0206940D02*
X0035570Y0206940D01*
X0035930Y0205460D02*
X0035200Y0204730D01*
X0034470Y0204730D01*
X0033730Y0205460D01*
X0034370Y0199750D02*
X0033630Y0199010D01*
X0034370Y0199750D02*
X0035100Y0199750D01*
X0035830Y0199010D01*
X0034730Y0198270D02*
X0034730Y0196810D01*
X0033630Y0196060D02*
X0034370Y0195330D01*
X0035100Y0195330D01*
X0035830Y0196060D01*
D679*
X0025410Y0305350D02*
X0025410Y0306680D01*
X0024080Y0305350D01*
X0023740Y0305350D01*
X0023410Y0305680D01*
X0023410Y0306350D01*
X0023740Y0306680D01*
X0023410Y0307560D02*
X0023410Y0308220D01*
X0023410Y0307890D02*
X0025080Y0307890D01*
X0025410Y0308220D01*
X0025410Y0308560D01*
X0025080Y0308890D01*
D679*
X0010400Y0177080D02*
X0010400Y0413300D01*
X0010400Y0413300D02*
X0128510Y0413300D01*
X0128510Y0413300D02*
X0128510Y0177080D01*
X0010400Y0177080D01*
X0138110Y0010000D02*
G75*
%LPD*%
D679*
X0232600Y0167480D02*
X0232600Y0010000D01*
X0138110Y0010000D01*
X0138110Y0167480D01*
X0232600Y0167480D01*
X0228660Y0155660D02*
X0228640Y0155100D01*
X0228580Y0154550D01*
X0228480Y0154010D01*
X0228350Y0153470D01*
X0228170Y0152940D01*
X0227960Y0152430D01*
X0227720Y0151930D01*
X0227440Y0151450D01*
X0227120Y0150990D01*
X0226780Y0150550D01*
X0226400Y0150140D01*
X0226000Y0149760D01*
X0225570Y0149410D01*
X0225120Y0149090D01*
X0224640Y0148800D01*
X0224150Y0148540D01*
X0223640Y0148320D01*
X0223120Y0148140D01*
X0222580Y0148000D01*
X0222030Y0147890D01*
X0221480Y0147820D01*
X0220930Y0147790D01*
X0220370Y0147800D01*
X0219820Y0147850D01*
X0219270Y0147940D01*
X0218730Y0148060D01*
X0218200Y0148230D01*
X0217680Y0148430D01*
X0217180Y0148670D01*
X0216700Y0148940D01*
X0216230Y0149240D01*
X0215790Y0149580D01*
X0215370Y0149950D01*
X0214990Y0150350D01*
X0214620Y0150770D01*
X0214290Y0151220D01*
X0214000Y0151680D01*
X0213730Y0152170D01*
X0213510Y0152680D01*
X0213310Y0153200D01*
X0213160Y0153740D01*
X0213040Y0154280D01*
X0212960Y0154830D01*
X0212920Y0155380D01*
X0212920Y0155940D01*
X0212960Y0156490D01*
X0213040Y0157040D01*
X0213160Y0157580D01*
X0213310Y0158120D01*
X0213510Y0158640D01*
X0213730Y0159150D01*
X0214000Y0159640D01*
X0214290Y0160100D01*
X0214620Y0160550D01*
X0214990Y0160970D01*
X0215370Y0161370D01*
X0215790Y0161740D01*
X0216230Y0162080D01*
X0216700Y0162380D01*
X0217180Y0162650D01*
X0217680Y0162890D01*
X0218200Y0163090D01*
X0218730Y0163260D01*
X0219270Y0163380D01*
X0219820Y0163470D01*
X0220370Y0163520D01*
X0220930Y0163530D01*
X0221480Y0163500D01*
X0222030Y0163430D01*
X0222580Y0163320D01*
X0223120Y0163180D01*
X0223640Y0163000D01*
X0224150Y0162780D01*
X0224640Y0162520D01*
X0225120Y0162230D01*
X0225570Y0161910D01*
X0226000Y0161560D01*
X0226400Y0161180D01*
X0226780Y0160770D01*
X0227120Y0160330D01*
X0227440Y0159870D01*
X0227720Y0159390D01*
X0227960Y0158890D01*
X0228170Y0158380D01*
X0228350Y0157850D01*
X0228480Y0157310D01*
X0228580Y0156770D01*
X0228640Y0156220D01*
X0228660Y0155660D01*
X0157790Y0021810D02*
X0157770Y0021250D01*
X0157710Y0020700D01*
X0157610Y0020160D01*
X0157480Y0019620D01*
X0157300Y0019090D01*
X0157090Y0018580D01*
X0156850Y0018080D01*
X0156570Y0017600D01*
X0156250Y0017140D01*
X0155910Y0016700D01*
X0155530Y0016290D01*
X0155130Y0015910D01*
X0154700Y0015560D01*
X0154250Y0015240D01*
X0153770Y0014950D01*
X0153280Y0014690D01*
X0152770Y0014470D01*
X0152250Y0014290D01*
X0151710Y0014150D01*
X0151160Y0014040D01*
X0150610Y0013970D01*
X0150060Y0013940D01*
X0149500Y0013950D01*
X0148950Y0014000D01*
X0148400Y0014090D01*
X0147860Y0014210D01*
X0147330Y0014380D01*
X0146810Y0014580D01*
X0146310Y0014820D01*
X0145830Y0015090D01*
X0145360Y0015390D01*
X0144920Y0015730D01*
X0144500Y0016100D01*
X0144120Y0016500D01*
X0143750Y0016920D01*
X0143420Y0017370D01*
X0143130Y0017830D01*
X0142860Y0018320D01*
X0142640Y0018830D01*
X0142440Y0019350D01*
X0142290Y0019890D01*
X0142170Y0020430D01*
X0142090Y0020980D01*
X0142050Y0021530D01*
X0142050Y0022090D01*
X0142090Y0022640D01*
X0142170Y0023190D01*
X0142290Y0023730D01*
X0142440Y0024270D01*
X0142640Y0024790D01*
X0142860Y0025300D01*
X0143130Y0025790D01*
X0143420Y0026250D01*
X0143750Y0026700D01*
X0144120Y0027120D01*
X0144500Y0027520D01*
X0144920Y0027890D01*
X0145360Y0028230D01*
X0145830Y0028530D01*
X0146310Y0028800D01*
X0146810Y0029040D01*
X0147330Y0029240D01*
X0147860Y0029410D01*
X0148400Y0029530D01*
X0148950Y0029620D01*
X0149500Y0029670D01*
X0150060Y0029680D01*
X0150610Y0029650D01*
X0151160Y0029580D01*
X0151710Y0029470D01*
X0152250Y0029330D01*
X0152770Y0029150D01*
X0153280Y0028930D01*
X0153770Y0028670D01*
X0154250Y0028380D01*
X0154700Y0028060D01*
X0155130Y0027710D01*
X0155530Y0027330D01*
X0155910Y0026920D01*
X0156250Y0026480D01*
X0156570Y0026020D01*
X0156850Y0025540D01*
X0157090Y0025040D01*
X0157300Y0024530D01*
X0157480Y0024000D01*
X0157610Y0023460D01*
X0157710Y0022920D01*
X0157770Y0022370D01*
X0157790Y0021810D01*
D679*
X0155460Y0142710D02*
X0156190Y0143440D01*
X0156190Y0144180D01*
X0155460Y0144910D01*
X0154710Y0143810D02*
X0153250Y0143810D01*
X0152510Y0142710D02*
X0151770Y0143440D01*
X0151770Y0144180D01*
X0152510Y0144910D01*
X0146790Y0144280D02*
X0146060Y0145010D01*
X0146790Y0144280D02*
X0146790Y0143540D01*
X0146060Y0142810D01*
X0145310Y0143910D02*
X0143850Y0143910D01*
X0144580Y0143180D02*
X0144580Y0144640D01*
X0143110Y0145010D02*
X0142370Y0144280D01*
X0142370Y0143540D01*
X0143110Y0142810D01*
D679*
X0137710Y0010400D02*
X0137710Y0167880D01*
X0233000Y0167880D01*
X0233000Y0010400D01*
X0137710Y0010400D01*
X0138110Y0177480D02*
G75*
%LPD*%
D679*
X0256220Y0177480D02*
X0138110Y0177480D01*
X0138110Y0413700D01*
X0256220Y0413700D01*
X0256220Y0177480D01*
X0244410Y0181420D02*
X0243850Y0181440D01*
X0243300Y0181500D01*
X0242760Y0181600D01*
X0242220Y0181730D01*
X0241690Y0181910D01*
X0241180Y0182120D01*
X0240680Y0182360D01*
X0240200Y0182640D01*
X0239740Y0182960D01*
X0239300Y0183300D01*
X0238890Y0183680D01*
X0238510Y0184080D01*
X0238160Y0184510D01*
X0237840Y0184960D01*
X0237550Y0185440D01*
X0237290Y0185930D01*
X0237070Y0186440D01*
X0236890Y0186960D01*
X0236750Y0187500D01*
X0236640Y0188050D01*
X0236570Y0188600D01*
X0236540Y0189150D01*
X0236550Y0189710D01*
X0236600Y0190260D01*
X0236690Y0190810D01*
X0236810Y0191350D01*
X0236980Y0191880D01*
X0237180Y0192400D01*
X0237420Y0192900D01*
X0237690Y0193380D01*
X0237990Y0193850D01*
X0238330Y0194290D01*
X0238700Y0194710D01*
X0239100Y0195090D01*
X0239520Y0195460D01*
X0239970Y0195790D01*
X0240430Y0196080D01*
X0240920Y0196350D01*
X0241430Y0196570D01*
X0241950Y0196770D01*
X0242490Y0196920D01*
X0243030Y0197040D01*
X0243580Y0197120D01*
X0244130Y0197160D01*
X0244690Y0197160D01*
X0245240Y0197120D01*
X0245790Y0197040D01*
X0246330Y0196920D01*
X0246870Y0196770D01*
X0247390Y0196570D01*
X0247900Y0196350D01*
X0248390Y0196080D01*
X0248850Y0195790D01*
X0249300Y0195460D01*
X0249720Y0195090D01*
X0250120Y0194710D01*
X0250490Y0194290D01*
X0250830Y0193850D01*
X0251130Y0193380D01*
X0251400Y0192900D01*
X0251640Y0192400D01*
X0251840Y0191880D01*
X0252010Y0191350D01*
X0252130Y0190810D01*
X0252220Y0190260D01*
X0252270Y0189710D01*
X0252280Y0189150D01*
X0252250Y0188600D01*
X0252180Y0188050D01*
X0252070Y0187500D01*
X0251930Y0186960D01*
X0251750Y0186440D01*
X0251530Y0185930D01*
X0251270Y0185440D01*
X0250980Y0184960D01*
X0250660Y0184510D01*
X0250310Y0184080D01*
X0249930Y0183680D01*
X0249520Y0183300D01*
X0249080Y0182960D01*
X0248620Y0182640D01*
X0248140Y0182360D01*
X0247640Y0182120D01*
X0247130Y0181910D01*
X0246600Y0181730D01*
X0246060Y0181600D01*
X0245520Y0181500D01*
X0244970Y0181440D01*
X0244410Y0181420D01*
X0149920Y0181420D02*
X0149360Y0181440D01*
X0148810Y0181500D01*
X0148270Y0181600D01*
X0147730Y0181730D01*
X0147200Y0181910D01*
X0146690Y0182120D01*
X0146190Y0182360D01*
X0145710Y0182640D01*
X0145250Y0182960D01*
X0144810Y0183300D01*
X0144400Y0183680D01*
X0144020Y0184080D01*
X0143670Y0184510D01*
X0143350Y0184960D01*
X0143060Y0185440D01*
X0142800Y0185930D01*
X0142580Y0186440D01*
X0142400Y0186960D01*
X0142260Y0187500D01*
X0142150Y0188050D01*
X0142080Y0188600D01*
X0142050Y0189150D01*
X0142060Y0189710D01*
X0142110Y0190260D01*
X0142200Y0190810D01*
X0142320Y0191350D01*
X0142490Y0191880D01*
X0142690Y0192400D01*
X0142930Y0192900D01*
X0143200Y0193380D01*
X0143500Y0193850D01*
X0143840Y0194290D01*
X0144210Y0194710D01*
X0144610Y0195090D01*
X0145030Y0195460D01*
X0145480Y0195790D01*
X0145940Y0196080D01*
X0146430Y0196350D01*
X0146940Y0196570D01*
X0147460Y0196770D01*
X0148000Y0196920D01*
X0148540Y0197040D01*
X0149090Y0197120D01*
X0149640Y0197160D01*
X0150200Y0197160D01*
X0150750Y0197120D01*
X0151300Y0197040D01*
X0151840Y0196920D01*
X0152380Y0196770D01*
X0152900Y0196570D01*
X0153410Y0196350D01*
X0153900Y0196080D01*
X0154360Y0195790D01*
X0154810Y0195460D01*
X0155230Y0195090D01*
X0155630Y0194710D01*
X0156000Y0194290D01*
X0156340Y0193850D01*
X0156640Y0193380D01*
X0156910Y0192900D01*
X0157150Y0192400D01*
X0157350Y0191880D01*
X0157520Y0191350D01*
X0157640Y0190810D01*
X0157730Y0190260D01*
X0157780Y0189710D01*
X0157790Y0189150D01*
X0157760Y0188600D01*
X0157690Y0188050D01*
X0157580Y0187500D01*
X0157440Y0186960D01*
X0157260Y0186440D01*
X0157040Y0185930D01*
X0156780Y0185440D01*
X0156490Y0184960D01*
X0156170Y0184510D01*
X0155820Y0184080D01*
X0155440Y0183680D01*
X0155030Y0183300D01*
X0154590Y0182960D01*
X0154130Y0182640D01*
X0153650Y0182360D01*
X0153150Y0182120D01*
X0152640Y0181910D01*
X0152110Y0181730D01*
X0151570Y0181600D01*
X0151030Y0181500D01*
X0150480Y0181440D01*
X0149920Y0181420D01*
X0149920Y0394020D02*
X0149360Y0394040D01*
X0148810Y0394100D01*
X0148270Y0394200D01*
X0147730Y0394330D01*
X0147200Y0394510D01*
X0146690Y0394720D01*
X0146190Y0394960D01*
X0145710Y0395240D01*
X0145250Y0395560D01*
X0144810Y0395900D01*
X0144400Y0396280D01*
X0144020Y0396680D01*
X0143670Y0397110D01*
X0143350Y0397560D01*
X0143060Y0398040D01*
X0142800Y0398530D01*
X0142580Y0399040D01*
X0142400Y0399560D01*
X0142260Y0400100D01*
X0142150Y0400650D01*
X0142080Y0401200D01*
X0142050Y0401750D01*
X0142060Y0402310D01*
X0142110Y0402860D01*
X0142200Y0403410D01*
X0142320Y0403950D01*
X0142490Y0404480D01*
X0142690Y0405000D01*
X0142930Y0405500D01*
X0143200Y0405980D01*
X0143500Y0406450D01*
X0143840Y0406890D01*
X0144210Y0407310D01*
X0144610Y0407690D01*
X0145030Y0408060D01*
X0145480Y0408390D01*
X0145940Y0408680D01*
X0146430Y0408950D01*
X0146940Y0409170D01*
X0147460Y0409370D01*
X0148000Y0409520D01*
X0148540Y0409640D01*
X0149090Y0409720D01*
X0149640Y0409760D01*
X0150200Y0409760D01*
X0150750Y0409720D01*
X0151300Y0409640D01*
X0151840Y0409520D01*
X0152380Y0409370D01*
X0152900Y0409170D01*
X0153410Y0408950D01*
X0153900Y0408680D01*
X0154360Y0408390D01*
X0154810Y0408060D01*
X0155230Y0407690D01*
X0155630Y0407310D01*
X0156000Y0406890D01*
X0156340Y0406450D01*
X0156640Y0405980D01*
X0156910Y0405500D01*
X0157150Y0405000D01*
X0157350Y0404480D01*
X0157520Y0403950D01*
X0157640Y0403410D01*
X0157730Y0402860D01*
X0157780Y0402310D01*
X0157790Y0401750D01*
X0157760Y0401200D01*
X0157690Y0400650D01*
X0157580Y0400100D01*
X0157440Y0399560D01*
X0157260Y0399040D01*
X0157040Y0398530D01*
X0156780Y0398040D01*
X0156490Y0397560D01*
X0156170Y0397110D01*
X0155820Y0396680D01*
X0155440Y0396280D01*
X0155030Y0395900D01*
X0154590Y0395560D01*
X0154130Y0395240D01*
X0153650Y0394960D01*
X0153150Y0394720D01*
X0152640Y0394510D01*
X0152110Y0394330D01*
X0151570Y0394200D01*
X0151030Y0394100D01*
X0150480Y0394040D01*
X0149920Y0394020D01*
X0244410Y0394020D02*
X0243850Y0394040D01*
X0243300Y0394100D01*
X0242760Y0394200D01*
X0242220Y0394330D01*
X0241690Y0394510D01*
X0241180Y0394720D01*
X0240680Y0394960D01*
X0240200Y0395240D01*
X0239740Y0395560D01*
X0239300Y0395900D01*
X0238890Y0396280D01*
X0238510Y0396680D01*
X0238160Y0397110D01*
X0237840Y0397560D01*
X0237550Y0398040D01*
X0237290Y0398530D01*
X0237070Y0399040D01*
X0236890Y0399560D01*
X0236750Y0400100D01*
X0236640Y0400650D01*
X0236570Y0401200D01*
X0236540Y0401750D01*
X0236550Y0402310D01*
X0236600Y0402860D01*
X0236690Y0403410D01*
X0236810Y0403950D01*
X0236980Y0404480D01*
X0237180Y0405000D01*
X0237420Y0405500D01*
X0237690Y0405980D01*
X0237990Y0406450D01*
X0238330Y0406890D01*
X0238700Y0407310D01*
X0239100Y0407690D01*
X0239520Y0408060D01*
X0239970Y0408390D01*
X0240430Y0408680D01*
X0240920Y0408950D01*
X0241430Y0409170D01*
X0241950Y0409370D01*
X0242490Y0409520D01*
X0243030Y0409640D01*
X0243580Y0409720D01*
X0244130Y0409760D01*
X0244690Y0409760D01*
X0245240Y0409720D01*
X0245790Y0409640D01*
X0246330Y0409520D01*
X0246870Y0409370D01*
X0247390Y0409170D01*
X0247900Y0408950D01*
X0248390Y0408680D01*
X0248850Y0408390D01*
X0249300Y0408060D01*
X0249720Y0407690D01*
X0250120Y0407310D01*
X0250490Y0406890D01*
X0250830Y0406450D01*
X0251130Y0405980D01*
X0251400Y0405500D01*
X0251640Y0405000D01*
X0251840Y0404480D01*
X0252010Y0403950D01*
X0252130Y0403410D01*
X0252220Y0402860D01*
X0252270Y0402310D01*
X0252280Y0401750D01*
X0252250Y0401200D01*
X0252180Y0400650D01*
X0252070Y0400100D01*
X0251930Y0399560D01*
X0251750Y0399040D01*
X0251530Y0398530D01*
X0251270Y0398040D01*
X0250980Y0397560D01*
X0250660Y0397110D01*
X0250310Y0396680D01*
X0249930Y0396280D01*
X0249520Y0395900D01*
X0249080Y0395560D01*
X0248620Y0395240D01*
X0248140Y0394960D01*
X0247640Y0394720D01*
X0247130Y0394510D01*
X0246600Y0394330D01*
X0246060Y0394200D01*
X0245520Y0394100D01*
X0244970Y0394040D01*
X0244410Y0394020D01*
D679*
X0163310Y0209150D02*
X0164040Y0208410D01*
X0163310Y0209150D02*
X0162580Y0209150D01*
X0161840Y0208410D01*
X0162940Y0207670D02*
X0162940Y0206210D01*
X0162210Y0206940D02*
X0163680Y0206940D01*
X0164040Y0205460D02*
X0163310Y0204730D01*
X0162580Y0204730D01*
X0161840Y0205460D01*
X0162480Y0199750D02*
X0161740Y0199010D01*
X0162480Y0199750D02*
X0163210Y0199750D01*
X0163940Y0199010D01*
X0162840Y0198270D02*
X0162840Y0196810D01*
X0161740Y0196060D02*
X0162480Y0195330D01*
X0163210Y0195330D01*
X0163940Y0196060D01*
D679*
X0153520Y0305350D02*
X0153520Y0306680D01*
X0152190Y0305350D01*
X0151850Y0305350D01*
X0151520Y0305680D01*
X0151520Y0306350D01*
X0151850Y0306680D01*
X0151520Y0307560D02*
X0151520Y0308220D01*
X0151520Y0307890D02*
X0153190Y0307890D01*
X0153520Y0308220D01*
X0153520Y0308560D01*
X0153190Y0308890D01*
D679*
X0137710Y0177080D02*
X0137710Y0413300D01*
X0255820Y0413300D01*
X0255820Y0413300D02*
X0255820Y0177080D01*
X0255820Y0177080D02*
X0137710Y0177080D01*
D679*
X0022900Y0010400D02*
X0010400Y0010400D01*
X0010400Y0022900D01*
X0255820Y0022900D02*
X0255820Y0010400D01*
X0243320Y0010400D01*
X0243320Y0413300D02*
X0255820Y0413300D01*
X0255820Y0400800D01*
X0010400Y0400800D02*
X0010400Y0413300D01*
X0022900Y0413300D01*
%ADD10C,0.00100*%
D10*
X0010000Y0010000D02*
X0010000Y0413700D01*
X0256220Y0413700D01*
X0256220Y0010000D01*
X0010000Y0010000D01*
M02*
