%
T01C0.008000
X9949Y14088
X9103Y13800
X8945Y14352
X9103Y13013
X9103Y12462
X10087Y11807
X8788Y10808
X7922Y10572
X8079Y11438
X6190Y9785
X6591Y9188
X7110Y9222
X6811Y8661
X6921Y8381
X7291Y7988
X7764Y7988
X8236Y7988
X8709Y7988
X8709Y7515
X8709Y7043
X8709Y6570
X8236Y6570
X7764Y6570
X7291Y6570
X7291Y7043
X7291Y7515
X7764Y7515
X7764Y7043
X8236Y7043
X8236Y7515
X9268Y8559
X10165Y8933
X10165Y9287
X10126Y6649
X9957Y6405
X9654Y6405
X10118Y6110
X8953Y4661
X9268Y4385
X9563Y4090
X9484Y3618
X9012Y3618
X8539Y3618
X8894Y4129
X8598Y4401
X8638Y4661
X8126Y4464
X8126Y4866
X7496Y4866
X7102Y4787
X7496Y4464
X7024Y4000
X6807Y3618
X7358Y3618
X7870Y3618
X6295Y3618
X5744Y3618
X5016Y2811
X1945Y4464
X1544Y3485
X2024Y6118
X1386Y6860
X3354Y7533
X3291Y8120
X4071Y9188
X4622Y9267
X5016Y9582
X5016Y8086
X5560Y7422
X5016Y6196
X5537Y6050
X6347Y6084
X9996Y3618
X1866Y11236
X1465Y10887
X1465Y9942
X1465Y12304
X1465Y13958
X3527Y16438
X4828Y15776
X5638Y14273
X5016Y14070
X4245Y14219
X5796Y11438
X7228Y14509
X7278Y15418
X7740Y16123
X11961Y22459
X12211Y24659
X10261Y28672
X10711Y30809
X10261Y33309
X11911Y36659
X8561Y39159
X7761Y36459
X6161Y36309
X5961Y33359
X4261Y33109
X4261Y34109
X3141Y34589
X2211Y36459
X4161Y39809
X3911Y31509
X3821Y31169
X2781Y29849
X2761Y29509
X2411Y28859
X2161Y30859
X4361Y27409
X3661Y25859
X3031Y22199
X2361Y21009
X6061Y25809
X6211Y28059
X6511Y28359
X7461Y28909
X8711Y29059
X8361Y31259
X7461Y23259
X22760Y14088
X21914Y13800
X21756Y14352
X21914Y13013
X21914Y12462
X22898Y11807
X21599Y10808
X20733Y10572
X20890Y11438
X19001Y9785
X19402Y9188
X19921Y9222
X19622Y8661
X19732Y8381
X20102Y7988
X20575Y7988
X21047Y7988
X21520Y7988
X21520Y7515
X21520Y7043
X21520Y6570
X21047Y6570
X20575Y6570
X20102Y6570
X20102Y7043
X20102Y7515
X20575Y7515
X20575Y7043
X21047Y7043
X21047Y7515
X22079Y8559
X22976Y8933
X22976Y9287
X22937Y6649
X22768Y6405
X22465Y6405
X22929Y6110
X21764Y4661
X22079Y4385
X22374Y4090
X22295Y3618
X21823Y3618
X21350Y3618
X21705Y4129
X21409Y4401
X21449Y4661
X20937Y4464
X20937Y4866
X20307Y4866
X19913Y4787
X20307Y4464
X19835Y4000
X19618Y3618
X20169Y3618
X20681Y3618
X19106Y3618
X18555Y3618
X17827Y2811
X14756Y4464
X14355Y3485
X14835Y6118
X14197Y6860
X16165Y7533
X16102Y8120
X16882Y9188
X17433Y9267
X17827Y9582
X17827Y8086
X18371Y7422
X17827Y6196
X18348Y6050
X19158Y6084
X22807Y3618
X14677Y11236
X14276Y10887
X14276Y9942
X14276Y12304
X14276Y13958
X16338Y16438
X17639Y15776
X18449Y14273
X17827Y14070
X17056Y14219
X18607Y11438
X20039Y14509
X20089Y15418
X20551Y16123
X24772Y22459
X25022Y24659
X23072Y28672
X23522Y30809
X23072Y33309
X24722Y36659
X21372Y39159
X20572Y36459
X18972Y36309
X18772Y33359
X17072Y33109
X17072Y34109
X15952Y34589
X15022Y36459
X16972Y39809
X16722Y31509
X16632Y31169
X15592Y29849
X15572Y29509
X15222Y28859
X14972Y30859
X17172Y27409
X16472Y25859
X15842Y22199
X15172Y21009
X18872Y25809
X19022Y28059
X19322Y28359
X20272Y28909
X21522Y29059
X21172Y31259
X20272Y23259
T02C0.025600
X7063Y13598
X6276Y13598
X6276Y12811
X7063Y12811
X9898Y12574
X2311Y29609
X4003Y32512
X4740Y32512
X6161Y38459
X5811Y40909
X5631Y22559
X3211Y25109
X19874Y13598
X19087Y13598
X19087Y12811
X19874Y12811
X22709Y12574
X15122Y29609
X16814Y32512
X17551Y32512
X18972Y38459
X18622Y40909
X18442Y22559
X16022Y25109
T03C0.031500
X4465Y10133
X3677Y10133
X6433Y5173
X6433Y4385
X17276Y10133
X16488Y10133
X19244Y5173
X19244Y4385
T04C0.039700
X1700Y16054
X2840Y16054
X2722Y14991
X1722Y14991
X4075Y21682
X4075Y22822
X7711Y25009
X8711Y24909
X9711Y25009
X10711Y24909
X6911Y32159
X6811Y33159
X6911Y34159
X6811Y31159
X4083Y20619
X4083Y19619
X14511Y16054
X15651Y16054
X15533Y14991
X14533Y14991
X16886Y21682
X16886Y22822
X20522Y25009
X21522Y24909
X22522Y25009
X23522Y24909
X19722Y32159
X19622Y33159
X19722Y34159
X19622Y31159
X16894Y20619
X16894Y19619
T05C0.157500
X9268Y15566
X2181Y2181
X11630Y18929
X2181Y18929
X2181Y40189
X11630Y40189
X22079Y15566
X14992Y2181
X24441Y18929
X14992Y18929
X14992Y40189
X24441Y40189
M30
